<?xml version="1.0" ?><svg data-name="Layer 1" id="Layer_1" viewBox="0 0 24 24" xmlns="http://www.w3.org/2000/svg"><title/><path d="M22.19,15.3,19.3,12.42a2,2,0,0,0-1.73-.56,2,2,0,0,0-1.42,1l-.62.8a.53.53,0,0,1-.38.2.5.5,0,0,1-.39-.15L10.32,9.24a.54.54,0,0,1-.15-.4.53.53,0,0,1,.2-.37l.8-.62a2,2,0,0,0,1-1.42,2,2,0,0,0-.56-1.74L8.7,1.81a2.85,2.85,0,0,0-3.93,0L1.66,4.93c-.87.86-.88,2.33,0,4.38a12.2,12.2,0,0,0,2.21,3.6l7.26,7.26a12.2,12.2,0,0,0,3.6,2.21,7.17,7.17,0,0,0,2.6.62,2.38,2.38,0,0,0,1.78-.66l3.12-3.11A2.79,2.79,0,0,0,22.19,15.3Zm-1.45,2.48-3.12,3.11c-.59.43-3.88-1-5.08-2.17L5.28,11.46C4.08,10.25,2.68,7,3.11,6.38L6.22,3.26a.74.74,0,0,1,1,0L10.1,6.09l-1,.76a2.62,2.62,0,0,0-1,1.87,2.59,2.59,0,0,0,.75,2l4.44,4.44a2.55,2.55,0,0,0,2,.75,2.62,2.62,0,0,0,1.87-1l.67-.86V14l0-.09,2.89,2.88A.74.74,0,0,1,20.74,17.78Z"/></svg>