<?xml version="1.0" ?><!DOCTYPE svg  PUBLIC '-//W3C//DTD SVG 1.1//EN'  'http://www.w3.org/Graphics/SVG/1.1/DTD/svg11.dtd'><svg enable-background="new 0 0 32 32" height="32px" id="Layer_1" version="1.1" viewBox="0 0 32 32" width="32px" xml:space="preserve" xmlns="http://www.w3.org/2000/svg" xmlns:xlink="http://www.w3.org/1999/xlink"><g id="Bubble_x2C__chat_x2C__chat_bubble_x2C__communication_x2C__message_x2C__feedback"><g id="chat_1_"><g><path d="M4.5,20c-0.053,0-0.106-0.009-0.158-0.025C4.138,19.906,4,19.715,4,19.5V16H2.5C1.673,16,1,15.327,1,14.5     v-12C1,1.673,1.673,1,2.5,1h15C18.327,1,19,1.673,19,2.5v5C19,7.776,18.776,8,18.5,8S18,7.776,18,7.5v-5     C18,2.225,17.775,2,17.5,2h-15C2.225,2,2,2.225,2,2.5v12C2,14.775,2.225,15,2.5,15h2C4.776,15,5,15.224,5,15.5V18l2.1-2.8     C7.194,15.074,7.343,15,7.5,15h1C8.776,15,9,15.224,9,15.5S8.776,16,8.5,16H7.75L4.9,19.8C4.804,19.929,4.654,20,4.5,20z" fill="#263238"/><g><g><path d="M4.5,10.5h3H4.5z" fill="#263238"/><path d="M7.5,11h-3C4.224,11,4,10.776,4,10.5S4.224,10,4.5,10h3C7.776,10,8,10.224,8,10.5S7.776,11,7.5,11z" fill="#263238"/></g><g><path d="M12.5,8.5h3H12.5z" fill="#263238"/><path d="M15.5,9h-3C12.224,9,12,8.776,12,8.5S12.224,8,12.5,8h3C15.776,8,16,8.224,16,8.5S15.776,9,15.5,9z" fill="#263238"/></g><g><path d="M4.5,8.5h6H4.5z" fill="#263238"/><path d="M10.5,9h-6C4.224,9,4,8.776,4,8.5S4.224,8,4.5,8h6C10.776,8,11,8.224,11,8.5S10.776,9,10.5,9z" fill="#263238"/></g><g><path d="M4.5,6.5h11H4.5z" fill="#263238"/><path d="M15.5,7h-11C4.224,7,4,6.776,4,6.5S4.224,6,4.5,6h11C15.776,6,16,6.224,16,6.5S15.776,7,15.5,7z" fill="#263238"/></g></g></g><g><path d="M27.5,31c-0.154,0-0.304-0.071-0.4-0.2L24.25,27H11.5c-0.827,0-1.5-0.673-1.5-1.5v-13     c0-0.827,0.673-1.5,1.5-1.5h5c0.276,0,0.5,0.224,0.5,0.5S16.776,12,16.5,12h-5c-0.275,0-0.5,0.225-0.5,0.5v13     c0,0.275,0.225,0.5,0.5,0.5h13c0.157,0,0.306,0.074,0.4,0.2L27,29v-2.5c0-0.276,0.224-0.5,0.5-0.5h2c0.275,0,0.5-0.225,0.5-0.5     v-13c0-0.275-0.225-0.5-0.5-0.5H24v1.5c0,0.183-0.1,0.351-0.26,0.438c-0.16,0.087-0.354,0.081-0.509-0.017l-5.5-3.5     C17.587,10.33,17.5,10.171,17.5,10s0.087-0.33,0.231-0.422l5.5-3.5c0.154-0.098,0.348-0.104,0.509-0.017     C23.9,6.149,24,6.317,24,6.5V8h3.5C27.776,8,28,8.224,28,8.5S27.776,9,27.5,9h-4C23.224,9,23,8.776,23,8.5V7.411L18.932,10     L23,12.589V11.5c0-0.276,0.224-0.5,0.5-0.5h6c0.827,0,1.5,0.673,1.5,1.5v13c0,0.827-0.673,1.5-1.5,1.5H28v3.5     c0,0.215-0.138,0.406-0.342,0.475C27.606,30.991,27.553,31,27.5,31z" fill="#263238"/><g><g><path d="M13.5,20.5h6H13.5z" fill="#263238"/><path d="M19.5,21h-6c-0.276,0-0.5-0.224-0.5-0.5s0.224-0.5,0.5-0.5h6c0.276,0,0.5,0.224,0.5,0.5       S19.776,21,19.5,21z" fill="#263238"/></g><g><path d="M13.5,18.5h3H13.5z" fill="#263238"/><path d="M16.5,19h-3c-0.276,0-0.5-0.224-0.5-0.5s0.224-0.5,0.5-0.5h3c0.276,0,0.5,0.224,0.5,0.5       S16.776,19,16.5,19z" fill="#263238"/></g><g><path d="M23.5,16.5h4H23.5z" fill="#263238"/><path d="M27.5,17h-4c-0.276,0-0.5-0.224-0.5-0.5s0.224-0.5,0.5-0.5h4c0.276,0,0.5,0.224,0.5,0.5       S27.776,17,27.5,17z" fill="#263238"/></g><g><path d="M18.5,18.5h9H18.5z" fill="#263238"/><path d="M27.5,19h-9c-0.276,0-0.5-0.224-0.5-0.5s0.224-0.5,0.5-0.5h9c0.276,0,0.5,0.224,0.5,0.5       S27.776,19,27.5,19z" fill="#263238"/></g><g><path d="M13.5,16.5h8H13.5z" fill="#263238"/><path d="M21.5,17h-8c-0.276,0-0.5-0.224-0.5-0.5s0.224-0.5,0.5-0.5h8c0.276,0,0.5,0.224,0.5,0.5       S21.776,17,21.5,17z" fill="#263238"/></g></g></g></g><circle cx="21.5" cy="20.5" fill="#263238" r="0.5"/><circle cx="29.5" cy="8.5" fill="#263238" r="0.5"/></g></svg>