<svg xmlns="http://www.w3.org/2000/svg" viewBox="0 0 128 128" id="businessman"><path fill="#ab7311" d="M70.22,22.81V42.46l-5.3,0-6,0H55.25l-19.73-.11h-.74l-2.72,0-5.91,0h0a10.57,10.57,0,0,1-3-1.07,8.43,8.43,0,0,1-1.28-.86,6.36,6.36,0,0,1-2.45-5.16V21.88a6.46,6.46,0,0,1,3.73-4.5,7.5,7.5,0,0,1,3-.56h0a.42.42,0,0,0,0-.07,8.86,8.86,0,0,1,0-1.78c.24-2.16,1.47-5.45,6.74-5.45H55.33S70.22,9.15,70.22,22.81Z"></path><path fill="#231f20" d="M26.14,15v1.78A8.86,8.86,0,0,1,26.14,15Z"></path><path fill="#91620f" d="M26.14,16.82V42.2a10.57,10.57,0,0,1-3-1.07V17.38A7.5,7.5,0,0,1,26.14,16.82Z"></path><path fill="#2c317d" d="M76.76,89.27v29.21H14.3V89.27a13.6,13.6,0,0,1,7.56-12.18c16.36-7.38,32.05-6.9,47.34,0A13.6,13.6,0,0,1,76.76,89.27Z"></path><path fill="#dee7f4" d="M56.1,72.81,54.74,83.62l-4.36,34.76v.1h-9.7L34.93,72.81A52.77,52.77,0,0,1,56.1,72.81Z"></path><path fill="#4b5aa7" d="M69.56 97.84L68 118.48H65l1.58-20.87a1.5 1.5 0 013 .23zM26.08 118.48h-3L21.51 97.84a1.5 1.5 0 011.38-1.61 1.48 1.48 0 011.61 1.38z"></path><path fill="#ccd6e4" d="M54.74 83.62l-4.59-3.08-4.61-3.11L51.23 72c1.63.18 3.26.43 4.88.76v0zM36.3 83.62l4.59-3.08 4.61-3.11L39.81 72c-1.63.18-3.26.43-4.88.76v0z"></path><path fill="#3a6fa1" d="M50.39,118.43v0H40.67L42.75,89h5.57l2.06,29.41Z"></path><polygon fill="#488bc9" points="50.15 80.54 48.32 88.97 42.74 88.97 40.91 80.54 45.53 77.44 50.15 80.54"></polygon><circle cx="26.15" cy="45.46" r="6.73" fill="#f1bab4"></circle><circle cx="64.92" cy="45.46" r="6.73" fill="#f1bab4"></circle><polygon fill="#f1bab4" points="51.24 54.62 51.24 72.03 51.23 72.04 45.54 77.43 45.53 77.44 45.52 77.43 39.84 72.05 39.82 72.03 39.82 54.62 51.24 54.62"></polygon><path fill="#fbd5d2" d="M64.92,42.2v6.51A19.39,19.39,0,0,1,45.34,68.1c-10.72-.1-19.2-9.17-19.2-19.88v-6c0-.13,0-.27,0-.4a3.84,3.84,0,0,1,2.62-3.53c2.65-.89,2.73-3,4.11-4.57a6.27,6.27,0,0,1,4.73-2.15H51.36a6.27,6.27,0,0,1,4.73,2.15c1.76,2.06,4.82,4.86,8.51,5A19.12,19.12,0,0,1,64.92,42.2Z"></path><polygon fill="#4b5aa7" points="62.06 83.2 50.39 118.43 50.38 118.38 54.74 83.62 56.1 72.82 61.09 74.07 62.06 83.2"></polygon><polygon fill="#4b5aa7" points="40.67 118.48 28.98 83.2 29.95 74.07 34.93 72.82 40.67 118.48"></polygon><path fill="#a17c78" d="M35.14 47a1.5 1.5 0 01-1.5-1.5V43.7a1.5 1.5 0 013 0v1.76A1.5 1.5 0 0135.14 47zM55.93 47a1.5 1.5 0 01-1.5-1.5V43.7a1.5 1.5 0 013 0v1.76A1.5 1.5 0 0155.93 47zM45.53 56.79a9.3 9.3 0 01-4.8-1.41 1.5 1.5 0 111.54-2.57 5.84 5.84 0 006.53 0 1.5 1.5 0 011.54 2.57A9.3 9.3 0 0145.53 56.79z"></path><path fill="#91620f" d="M99.42,90.47a1.5,1.5,0,0,1-1.5-1.5V85.29A3.26,3.26,0,0,0,94.67,82H81.36a3.26,3.26,0,0,0-3.25,3.25V89a1.5,1.5,0,0,1-3,0V85.29A6.25,6.25,0,0,1,81.36,79H94.67a6.26,6.26,0,0,1,6.25,6.25V89A1.5,1.5,0,0,1,99.42,90.47Z"></path><path fill="#ab7311" d="M109.53,92.61v22.23a3.64,3.64,0,0,1-3.63,3.64H70.13a3.64,3.64,0,0,1-3.64-3.64V92.61A3.64,3.64,0,0,1,70.13,89H105.9A3.64,3.64,0,0,1,109.53,92.61Z"></path><path fill="#91620f" d="M109.53,95.74v3.13l-21.09,6.29a1.54,1.54,0,0,1-.43.06,1.59,1.59,0,0,1-.43-.06L66.49,98.82V95.68L88,102.16Z"></path><path fill="#fbd5d2" d="M113.7,96.07a2.64,2.64,0,0,1-.79,1.9,2.7,2.7,0,0,1-1.91.79h-2.93a2.69,2.69,0,0,1-2.7-2.69c0-.1,0-.21,0-.31a2.71,2.71,0,0,1,2.69-2.39H111a2.71,2.71,0,0,1,2.69,2.39C113.69,95.86,113.7,96,113.7,96.07Z"></path><path fill="#fbd5d2" d="M113.7,101.46a2.7,2.7,0,0,1-2.7,2.7h-2.93a2.7,2.7,0,0,1-2.7-2.7c0-.1,0-.2,0-.3a2.71,2.71,0,0,1,2.69-2.4H111a2.71,2.71,0,0,1,2.69,2.4C113.69,101.26,113.7,101.36,113.7,101.46Z"></path><path fill="#fbd5d2" d="M113.7 106.85a2.7 2.7 0 01-2.7 2.7h-2.93a2.7 2.7 0 01-2.7-2.7c0-.1 0-.2 0-.3a2.7 2.7 0 012.69-2.39H111a2.7 2.7 0 012.69 2.39C113.69 106.65 113.7 106.75 113.7 106.85zM113.7 112.25a2.64 2.64 0 01-.79 1.9 2.7 2.7 0 01-1.91.79h-2.93a2.69 2.69 0 01-2.7-2.69c0-.1 0-.21 0-.31a2.71 2.71 0 012.69-2.39H111a2.71 2.71 0 012.69 2.39C113.69 112 113.7 112.15 113.7 112.25z"></path><rect width="6.53" height="11.65" x="84.75" y="97.9" fill="#c98714" rx="2.51"></rect><path fill="#91620f" d="M78.11 114.94v3.54h-3v-3.54a1.5 1.5 0 013 0zM100.92 114.94v3.54h-3v-3.54a1.5 1.5 0 013 0z"></path><path fill="#f1bab4" d="M113.7 96.07a2.64 2.64 0 01-.79 1.9 2.7 2.7 0 01-1.91.79h-2.93a2.69 2.69 0 01-2.7-2.69c0-.1 0-.21 0-.31h8.31C113.69 95.86 113.7 96 113.7 96.07zM113.7 101.46a2.7 2.7 0 01-2.7 2.7h-2.93a2.7 2.7 0 01-2.7-2.7c0-.1 0-.2 0-.3h8.31C113.69 101.26 113.7 101.36 113.7 101.46zM113.7 106.85a2.7 2.7 0 01-2.7 2.7h-2.93a2.7 2.7 0 01-2.7-2.7c0-.1 0-.2 0-.3h8.31C113.69 106.65 113.7 106.75 113.7 106.85zM113.7 112.25a2.64 2.64 0 01-.79 1.9 2.7 2.7 0 01-1.91.79h-2.93a2.69 2.69 0 01-2.7-2.69c0-.1 0-.21 0-.31h8.31C113.69 112 113.7 112.15 113.7 112.25z"></path></svg>