<svg xmlns="http://www.w3.org/2000/svg" enable-background="new 0 0 512 512" viewBox="0 0 512 512" id="cook"><path fill="#ffddce" d="M112,176H96c-13.234,0-24,10.766-24,24s10.766,24,24,24h16c4.418,0,8-3.582,8-8v-32
		C120,179.582,116.418,176,112,176z"></path><path fill="#ffccbd" d="M288,176h-16c-4.418,0-8,3.582-8,8v32c0,4.418,3.582,8,8,8h16c13.233,0,24-10.766,24-24
		S301.233,176,288,176z"></path><path fill="#e3eaee" d="M292.236,414.248l-0.586,77.401c0,4.42,2.942,10.879-1.478,10.879L260.66,512H230.5l-8.845-11.764
		L214.45,512H88c-4.42,0-8-3.58-8-8v-88.15c0-32.34,21.47-59.75,50.91-68.73c3.315-1.015,13.027,5.744,16.523,5.218
		S148.21,344,151.85,344h80.3c3.367,0,3.183,6.052,6.43,6.503c3.744,0.52,8.585-0.66,12.12,0.417
		C280.18,359.88,292.236,381.878,292.236,414.248z"></path><path fill="#c3d1db" d="M304,415.85V504c0,4.42-3.58,8-8,8h-35.34V401.17c0-19.75-8.01-37.66-20.95-50.66
		c3.92-0.37,10.09-4.4,13.3-3.42C282.49,356.05,304,383.48,304,415.85z"></path><path fill="#ffddce" d="M224,289.33h-64c-4.418,0-8,3.582-8,8V344v8c0,4.42,3.58,8,8,8h64c4.42,0,8-3.58,8-8l-6.032-7.459
		l-0.688-45.631C225.28,294.493,228.418,289.33,224,289.33z"></path><path fill="#ffccbd" d="M232,297.33V352c0,4.42-3.58,8-8,8h-12.69c1.23-1.4,1.97-3.24,1.97-5.25v-60.67
		c0-1.78-0.58-3.42-1.56-4.75H224C228.42,289.33,232,292.91,232,297.33z"></path><path fill="#ffccbd" d="M270.166,168l-0.401,12.822l-4.357,31.414c0,48.52-20.576,93.936-69.096,93.936
		c-14.132,0-32.065,2.519-44.297-3.733c-8.109-4.145-15.606-9.583-22.235-16.209C113.15,269.59,104,247.5,104,224v-42.88
		l4.949-8.477c0-4.42-1.369-9.623,3.051-9.623c4.37,0,23.25-11.84,23.33-7.49l61.75-3.83l47,5.73c0-4.42,23.5,2.57,27.92,2.57
		S270.166,163.58,270.166,168z"></path><path fill="#ffbda9" d="M274.35,168l5.65,13.74V224c0,48.52-39.48,88-88,88c-14.13,0-27.75-3.31-39.98-9.57
		c4.68,0.77,9.46,1.16,14.3,1.16c48.52,0,88-39.47,88-88v-56c0-1.06-0.21-2.08-0.59-3c7.03,1.14,15.75,3.41,18.27,3.41
		C276.42,160,274.35,163.58,274.35,168z"></path><path fill="#c3d1db" d="M270.682,142.834l-5.618,16.204c-0.72,0-5.137,5.932-5.847,5.732
		c-8.753-2.458-6.982,9.461-15.905,7.844C226.391,169.547,209.219,168,192,168c-25.66,0-62.69,6.23-88,13.12v-35.09l13.74-9.23
		L104,129.62V87.61l7.24-9.67c-2.12-2.52-11.09-2.56-12.37-5.51C96.98,68.18,96,63.56,96,58.8C96,39.61,112.15,24,132,24
		c5.76,0,11.39,1.35,16.42,3.84C156.11,11.19,172.93,0,192,0s35.89,11.19,43.58,27.84c3.92-1.94,8.203-3.189,12.629-3.645
		c1.254-0.129,4.691,5.404,5.963,5.404c19.85,0,22.36,6.839,22.36,26.029c0,4.76-0.98,9.38-2.87,13.64
		c-1.29,2.95,0.897,6.155-1.223,8.675l-8.219,45.307L270.682,142.834z"></path><path fill="#9eabb8" d="M288,58.8c0,4.76-0.98,9.38-2.87,13.64c-1.29,2.95-14.086,1.378-16.206,3.898L280,87.61v42.02
		l-7.484,5.79L280,146.04v35.7c-0.72,0-9.45-2.81-10.16-3.01c-8.76-2.46-17.61-4.5-26.53-6.11V75.192
		c0-7.992,1.868-15.83,5.091-23.144c0.013-0.029,0.026-0.059,0.039-0.088c1.89-4.26,2.87-8.88,2.87-13.64
		c0-5.03-1.11-9.81-3.1-14.12c1.25-0.13,2.52-0.2,3.79-0.2C271.85,24,288,39.61,288,58.8z"></path><path fill="#e3eaee" d="M272.516 133.02l-2.752 5.267c-12.092-2.806-14.105 2.724-26.454 1.09C226.35 137.132 209.198 136 192 136c-29.74 0-59.32 3.37-88 10.03v-16.41c28.73-6.39 58.3-9.62 88-9.62 17.187 0 34.336 1.086 51.311 3.242C255.651 124.809 260.414 130.33 272.516 133.02zM272.134 73.968c-1.29 2.95 3.572 1.531 1.452 4.051l-5.885 2.904c-15.29-4.8-14.511.476-23.841-.664-1.75-.22-3.4-.42-4.95-.63-4.38-.59-7.45-4.62-6.85-9 .59-4.38 4.61-7.45 9-6.86 1.48.2 3.06.4 4.75.6C255.33 65.54 255.254 68.648 272.134 73.968z"></path><path fill="#c3d1db" d="M280 129.63v16.41c-12.09-2.81-24.34-5.03-36.69-6.66v-16.13C255.65 124.81 267.89 126.94 280 129.63zM285.13 72.44c-1.29 2.95-3.01 5.72-5.13 8.24v6.93c-15.29-4.8-26.81-6.21-36.14-7.35-.18-.02-.37-.05-.55-.07v-5c0-3.7.4-7.37 1.16-10.98.44.05.89.11 1.34.16C255.33 65.54 268.25 67.12 285.13 72.44z"></path><path fill="#e3eaee" d="M153.44,78.6c-11.77,1.31-32.96,4.14-49.44,9.01v-6.93c-2.12-2.52-3.85-5.3-5.13-8.25
		c16.8-5.03,37.68-8.05,52.8-9.73c4.39-0.49,8.35,2.67,8.84,7.06C160.99,74.16,157.83,78.11,153.44,78.6z"></path><path fill="#9eabb8" d="M191.995 408.01c-4.418 0-8.005-3.587-8.005-8.005s3.586-8.005 8.005-8.005c4.418 0 8.005 3.587 8.005 8.005S196.413 408.01 191.995 408.01zM191.995 440c-4.418 0-8.005-3.587-8.005-8.005s3.586-8.005 8.005-8.005c4.418 0 8.005 3.587 8.005 8.005S196.413 440 191.995 440zM191.995 472.01c-4.418 0-8.005-3.587-8.005-8.005s3.586-8.005 8.005-8.005c4.418 0 8.005 3.587 8.005 8.005S196.413 472.01 191.995 472.01z"></path><path fill="#e3eaee" d="M384,344c-4.418,0-8-3.582-8-8V216c0-4.418,3.582-8,8-8s8,3.582,8,8v120
		C392,340.418,388.418,344,384,344z"></path><path fill="#c79878" d="M401.955,340.07l-2.637,105.936c0,13.23-2.089,30.497-15.318,30.497
		c-3.966,0-7.71,2.529-11.01,0.817C365.281,473.322,360,465.264,360,456v-24l6.911-6.745L360,416v-80c0-4.42,3.58-8,8-8h12.631
		l13.325,4.07C398.375,332.07,401.955,335.65,401.955,340.07z"></path><path fill="#ad774e" d="M408,336v80l-11.005,6.962L408,432v24c0,13.23-10.77,24-24,24c-3.97,0-7.71-0.97-11.01-2.68
		c7.72-3.99,13-12.05,13-21.32V336c0-4.42-3.58-8-8-8H400C404.42,328,408,331.58,408,336z"></path><polygon fill="#ad774e" points="404.439 417.611 401.955 427.395 385.99 432 360 432 360 416 385.99 416"></polygon><rect width="22.01" height="16" x="385.99" y="416" fill="#895d3c"></rect><path fill="#c3d1db" d="M383.497,216.363c-8.088,0-12.974,0.36-16.951-16.363c-0.608-2.558-1.183-5.336-1.73-8.344
		C361.71,174.578,360,151.971,360,128s1.71-46.578,4.815-63.656c0.515-2.834,1.056-5.465,1.625-7.899
		c3.987-17.039,9.4-20.082,17.559-20.082c8.155,0,13.566,3.035,17.553,20.054c0.572,2.442,1.115,5.082,1.632,7.926
		C406.29,81.422,408,104.029,408,128s-1.71,46.578-4.815,63.656c-0.547,3.007-1.122,5.786-1.73,8.344
		C397.477,216.723,391.585,216.363,383.497,216.363z M384,52.839c-3.677,10.979-8,36.366-8,75.161s4.323,64.182,8,75.161
		c3.677-10.979,8-36.366,8-75.161S387.677,63.818,384,52.839z"></path><path fill="#9eabb8" d="M384,224c-31.402,0-56-42.168-56-96s24.598-96,56-96s56,42.168,56,96S415.402,224,384,224z M384,48
		c-21.683,0-40,36.635-40,80s18.317,80,40,80s40-36.635,40-80S405.683,48,384,48z"></path><path fill="#c3d1db" d="M253.01,347.09c-6.64-2.023-13.71-3.104-21-3.09c-11.98,5.6-30.15,8.05-39.4,8.05
		c-13.091-0.045-28.827-2.562-40.6-8.05c-7.326-0.016-14.424,1.075-21.1,3.12c0.42,1.54,1.29,2.96,2.6,4.06
		c14.59,12.23,38.06,15.6,50.71,16.52l29.45,21.04c6.19,4.42,9.69,11.88,9.16,19.39L214.45,512h16.05l8.28-102.66
		c0.94-13.1-5.12-25.99-15.82-33.62l-12.86-9.19c13.67-2.05,30.81-6.56,40.6-15.61C251.86,349.84,252.63,348.51,253.01,347.09z"></path><path fill="#ffa68c" d="M192,264.01c-13.921,0-24.02-6.015-28.8-9.6c-3.535-2.651-4.251-7.665-1.6-11.2
		c2.65-3.535,7.666-4.251,11.2-1.6c3.187,2.39,9.919,6.4,19.2,6.4c3.983,0,11.775-0.832,19.2-6.4c3.531-2.65,8.547-1.936,11.2,1.6
		c2.65,3.534,1.935,8.549-1.601,11.2C209.663,262.763,197.976,264.01,192,264.01z"></path><path fill="#895d3c" d="M168.005 216.01c-4.418 0-8.005-3.587-8.005-8.005s3.586-8.005 8.005-8.005 8.005 3.587 8.005 8.005S172.423 216.01 168.005 216.01zM215.995 216.01c-4.418 0-8.005-3.587-8.005-8.005s3.587-8.005 8.005-8.005 8.005 3.587 8.005 8.005S220.413 216.01 215.995 216.01z"></path></svg>