<svg xmlns="http://www.w3.org/2000/svg" width="949" height="675" fill="none" viewBox="0 0 949 675" id="employee"><g filter="url(#filter0_d)"><path fill="url(#paint0_linear)" d="M26.9924 516.266C33.473 578.837 63.7585 609.017 88.1355 614.976L204.14 642.93L268.272 535.549C260.842 526.484 241.748 494.553 224.809 439.346C203.634 370.339 173.963 385.772 157.905 331.719C141.384 276.11 89.1144 292.827 118.759 346.817C142.475 390.01 129.687 399.904 125.695 413.257C115.947 445.864 134.97 462.77 148.758 477.815C179.143 510.968 196.478 629.061 138.073 542.539C123.712 527.044 93.0998 509.319 26.9924 516.266Z"></path><path fill="url(#paint1_linear)" fill-opacity=".5" d="M26.9924 516.266C33.473 578.837 63.7585 609.017 88.1355 614.976L204.14 642.93L268.272 535.549C260.842 526.484 241.748 494.553 224.809 439.346C203.634 370.339 173.963 385.772 157.905 331.719C141.384 276.11 89.1144 292.827 118.759 346.817C142.475 390.01 129.687 399.904 125.695 413.257C115.947 445.864 134.97 462.77 148.758 477.815C179.143 510.968 196.478 629.061 138.073 542.539C123.712 527.044 93.0998 509.319 26.9924 516.266Z"></path></g><path stroke="#fff" stroke-width="1.134" d="M126.84 304.98C143.138 376.682 210.071 486.138 197.755 573.756"></path><g filter="url(#filter1_d)"><path fill="url(#paint2_linear)" d="M914.787 507.717C906.45 570.068 895.827 586.807 871.45 610.101L746.611 647.537L685.698 538.296C693.394 529.456 713.429 498.107 732.002 443.428C755.218 375.08 784.417 391.389 802.075 337.837C820.241 282.743 871.991 301.006 840.755 354.092C815.766 396.561 828.254 406.831 831.847 420.296C840.621 453.178 826.255 477.746 806.875 484.14C787.495 490.534 786.456 538.012 788.568 563.514C803.383 548.453 848.915 498.81 914.787 507.717Z"></path><path fill="url(#paint3_linear)" fill-opacity=".5" d="M914.787 507.717C906.45 570.068 895.827 586.807 871.45 610.101L746.611 647.537L685.698 538.296C693.394 529.456 713.429 498.107 732.002 443.428C755.218 375.08 784.417 391.389 802.075 337.837C820.241 282.743 871.991 301.006 840.755 354.092C815.766 396.561 828.254 406.831 831.847 420.296C840.621 453.178 826.255 477.746 806.875 484.14C787.495 490.534 786.456 538.012 788.568 563.514C803.383 548.453 848.915 498.81 914.787 507.717Z"></path></g><path fill="url(#paint4_linear)" d="M207.878 382.502C218.657 349.446 288.502 314.476 328.813 302.193L396.839 313.531C408.939 320.46 440.807 336.773 471.479 346.599C509.819 358.882 513.05 421.239 552.732 501.547C584.478 565.794 623.907 574.297 639.654 570.518V615.869C615.719 618.073 558.59 617.758 521.554 598.862C484.517 579.966 447.178 509.736 433.139 476.982C430.2 484.107 427.148 492.334 424.239 501.547C415.168 530.269 428.018 606.106 435.576 640.434H207.878C181.424 579.966 193.706 425.963 207.878 382.502Z"></path><path fill="#EDCCA5" d="M317.56 215.315C325.066 203.565 341.126 209.979 350.224 217.127L397.993 302.29C388.546 306.931 386.51 336.853 386.673 351.233C342.26 354.361 327 334.072 315.606 306.697C323.086 285.926 333.536 250.89 323.386 245.587C313.236 240.283 310.819 225.865 317.56 215.315Z" filter="url(#filter2_i)"></path><path fill="#EECDA6" d="M394.746 312.819C428.839 311.05 459.726 260.48 453.341 181.344C429.582 160.402 364.381 189.855 333.425 205.693C348.699 254.738 360.807 314.581 394.746 312.819Z" filter="url(#filter3_d)"></path><path fill="#000" stroke="#000" stroke-width="1.89" d="M451.134 187.623C464.845 177.696 466.465 101.011 414.271 143.731C398.413 128.449 373.059 115.046 343.605 133.734C307.645 156.55 294.044 203.11 325.556 211.611C350.069 218.225 338.95 237.791 345.857 247.998C366.681 218.86 350.49 218.655 364.523 218.882C353.793 158.03 415.11 213.707 451.134 187.623Z"></path><path fill="#27BCEC" d="M325.721 503.863C309.131 496.312 301.43 440.842 299.653 414.051C294.929 342.818 209.775 352.269 211.034 415.915C211.677 448.386 220.588 522.962 251.094 561.49C281.6 600.019 428.139 603.864 497.596 600.97L495.617 558.599C445.898 543.5 342.311 511.413 325.721 503.863Z" filter="url(#filter4_dd)"></path><path fill="#EBC295" d="M488.104 562.011L487.673 588.331L526.601 598.263C543.662 602.666 551.748 591.451 564.731 591.99C598.272 593.381 592.542 577.895 568.739 576.907C544.343 572.661 549.865 564.01 572.268 560.882C620.739 554.113 636.957 558.944 588.189 542.135C539.421 525.327 533.204 556.951 523.934 561.649C516.517 565.408 496.957 563.457 488.104 562.011Z"></path><path stroke="#fff" stroke-width="1.134" d="M835.697 313.243C820.529 392.333 725.73 493.091 750.727 588.67"></path><rect width="107.511" height="14.783" x="429.907" y="625.317" fill="#1D375F" rx="7.391"></rect><path fill="#05285D" d="M545.828 463.957C546.201 461.138 548.605 459.031 551.448 459.031H761.657C765.091 459.031 767.736 462.06 767.274 465.463L744.184 635.528C743.802 638.338 741.403 640.434 738.567 640.434H528.966C525.54 640.434 522.897 637.418 523.346 634.022L545.828 463.957Z"></path><path fill="#173F7C" d="M552.788 463.93C553.173 461.123 555.571 459.031 558.405 459.031H776.742C780.187 459.031 782.836 462.079 782.355 465.49L758.417 635.577C758.023 638.375 755.629 640.456 752.804 640.456H535.096C531.66 640.456 529.013 637.423 529.48 634.018L552.788 463.93Z"></path><circle cx="658.551" cy="549.733" r="28.344" fill="#fff"></circle><rect width="723.721" height="13.227" x="99.226" y="642.324" fill="#F1A81A" rx="1.89"></rect><path fill="#0D7698" d="M482.816 557.358C482.816 557.358 486.852 557.209 489.43 557.358C492.4 557.53 496.988 558.303 496.988 558.303L499.823 599.874C493.598 600.767 490.955 600.639 484.706 599.874L482.816 557.358Z"></path><path stroke="#fff" stroke-width="1.134" d="M41.1318 526.667C104.03 573.509 161.108 627.614 195.828 636.753M908.828 515.843C858.449 541.845 762.227 623.644 762.227 638.309"></path><rect width="28.16" height="11.918" x="361.699" y="20.01" fill="#F1A81A" rx="5.959" transform="rotate(-43.36 361.699 20.01)"></rect><rect width="28.16" height="11.918" x="329.196" y="53.596" fill="#F1A81A" rx="5.959" transform="rotate(-43.36 329.196 53.596)"></rect><rect width="28.16" height="11.918" fill="#F1A81A" rx="5.959" transform="scale(-1 1) rotate(-43.36 -127.77 517.75)"></rect><rect width="28.16" height="11.918" fill="#F1A81A" rx="5.959" transform="scale(-1 1) rotate(-43.36 -153.76 460.08)"></rect><rect width="28.16" height="11.918" x="616.304" y="225.86" fill="#F1A81A" rx="5.959" transform="rotate(-43.36 616.304 225.86)"></rect><rect width="28.16" height="11.918" x="583.801" y="259.446" fill="#F1A81A" rx="5.959" transform="rotate(-43.36 583.801 259.446)"></rect><rect width="28.16" height="11.918" fill="#F1A81A" rx="5.959" transform="scale(-1 1) rotate(-43.36 3.827 940.894)"></rect><rect width="28.16" height="11.918" fill="#F1A81A" rx="5.959" transform="scale(-1 1) rotate(-43.36 -22.163 883.222)"></rect><rect width="28.16" height="11.918" x="214.354" y="182.523" fill="#3D539C" rx="5.959" transform="rotate(-43.36 214.354 182.523)"></rect><rect width="28.16" height="11.918" x="181.852" y="216.109" fill="#3D539C" rx="5.959" transform="rotate(-43.36 181.852 216.109)"></rect><rect width="28.16" height="11.918" fill="#3D539C" rx="5.959" transform="scale(-1 1) rotate(-43.36 150.296 413.691)"></rect><rect width="28.16" height="11.918" fill="#3D539C" rx="5.959" transform="scale(-1 1) rotate(-43.36 124.306 356.02)"></rect><rect width="28.16" height="11.918" x="583.802" y="34.094" fill="#3D539C" rx="5.959" transform="rotate(-43.36 583.802 34.094)"></rect><rect width="28.16" height="11.918" x="551.299" y="67.68" fill="#3D539C" rx="5.959" transform="rotate(-43.36 551.299 67.68)"></rect><rect width="28.16" height="11.918" fill="#3D539C" rx="5.959" transform="scale(-1 1) rotate(-43.36 -221.107 804.133)"></rect><rect width="28.16" height="11.918" fill="#3D539C" rx="5.959" transform="scale(-1 1) rotate(-43.36 -247.097 746.46)"></rect><rect width="28.16" height="11.918" x="815.654" y="209.609" fill="#3D539C" rx="5.959" transform="rotate(-43.36 815.654 209.609)"></rect><rect width="28.16" height="11.918" x="783.151" y="243.195" fill="#3D539C" rx="5.959" transform="rotate(-43.36 783.151 243.195)"></rect><rect width="28.16" height="11.918" fill="#3D539C" rx="5.959" transform="scale(-1 1) rotate(-43.36 -116.287 1183.494)"></rect><rect width="28.16" height="11.918" fill="#3D539C" rx="5.959" transform="scale(-1 1) rotate(-43.36 -142.277 1125.822)"></rect><defs><linearGradient id="paint0_linear" x1="234.747" x2="96.15" y1="399.819" y2="451.266" gradientUnits="userSpaceOnUse"><stop offset=".475" stop-color="#D89920"></stop><stop offset=".481" stop-color="#F1A81A"></stop></linearGradient><linearGradient id="paint1_linear" x1="123.509" x2="45.502" y1="518.064" y2="617.7" gradientUnits="userSpaceOnUse"><stop offset=".463" stop-color="#F8B026"></stop><stop offset=".466" stop-color="#E29705"></stop></linearGradient><linearGradient id="paint2_linear" x1="723.242" x2="860.249" y1="403.623" y2="459.166" gradientUnits="userSpaceOnUse"><stop offset=".475" stop-color="#D89920"></stop><stop offset=".481" stop-color="#F1A81A"></stop></linearGradient><linearGradient id="paint3_linear" x1="830.917" x2="905.928" y1="525.122" y2="627.032" gradientUnits="userSpaceOnUse"><stop offset=".192" stop-color="#F8B026"></stop><stop offset=".289" stop-color="#F8B026"></stop><stop offset=".336" stop-color="#E29705"></stop></linearGradient><linearGradient id="paint4_linear" x1="227.719" x2="617.924" y1="385.336" y2="453.362" gradientUnits="userSpaceOnUse"><stop offset=".069" stop-color="#56CCF2"></stop><stop offset=".562" stop-color="#43C7F1"></stop><stop offset=".571" stop-color="#27BCEC"></stop></linearGradient><filter id="filter0_d" width="337.523" height="385.157" x=".465" y="288.06" color-interpolation-filters="sRGB" filterUnits="userSpaceOnUse"><feFlood flood-opacity="0" result="BackgroundImageFix"></feFlood><feColorMatrix in="SourceAlpha" values="0 0 0 0 0 0 0 0 0 0 0 0 0 0 0 0 0 0 127 0"></feColorMatrix><feOffset dx="3.779" dy="3.779"></feOffset><feGaussianBlur stdDeviation="2.834"></feGaussianBlur><feColorMatrix values="0 0 0 0 0 0 0 0 0 0 0 0 0 0 0 0 0 0 0.25 0"></feColorMatrix><feBlend in2="BackgroundImageFix" result="effect1_dropShadow"></feBlend><feBlend in="SourceGraphic" in2="effect1_dropShadow" result="shape"></feBlend></filter><filter id="filter1_d" width="325.724" height="373.951" x="622.83" y="296.261" color-interpolation-filters="sRGB" filterUnits="userSpaceOnUse"><feFlood flood-opacity="0" result="BackgroundImageFix"></feFlood><feColorMatrix in="SourceAlpha" values="0 0 0 0 0 0 0 0 0 0 0 0 0 0 0 0 0 0 127 0"></feColorMatrix><feOffset dy="4.334"></feOffset><feGaussianBlur stdDeviation="3.779"></feGaussianBlur><feColorMatrix values="0 0 0 0 0 0 0 0 0 0 0 0 0 0 0 0 0 0 0.25 0"></feColorMatrix><feBlend in2="BackgroundImageFix" result="effect1_dropShadow"></feBlend><feBlend in="SourceGraphic" in2="effect1_dropShadow" result="shape"></feBlend></filter><filter id="filter2_i" width="113.974" height="149.445" x="295.671" y="206.76" color-interpolation-filters="sRGB" filterUnits="userSpaceOnUse"><feFlood flood-opacity="0" result="BackgroundImageFix"></feFlood><feBlend in="SourceGraphic" in2="BackgroundImageFix" result="shape"></feBlend><feColorMatrix in="SourceAlpha" result="hardAlpha" values="0 0 0 0 0 0 0 0 0 0 0 0 0 0 0 0 0 0 127 0"></feColorMatrix><feOffset dx="-5.669" dy="5.669"></feOffset><feGaussianBlur stdDeviation=".945"></feGaussianBlur><feComposite in2="hardAlpha" k2="-1" k3="1" operator="arithmetic"></feComposite><feColorMatrix values="0 0 0 0 0.84209 0 0 0 0 0.616467 0 0 0 0 0.356134 0 0 0 0.25 0"></feColorMatrix><feBlend in2="shape" result="effect1_innerShadow"></feBlend></filter><filter id="filter3_d" width="155.215" height="173.994" x="309.975" y="156.507" color-interpolation-filters="sRGB" filterUnits="userSpaceOnUse"><feFlood flood-opacity="0" result="BackgroundImageFix"></feFlood><feColorMatrix in="SourceAlpha" values="0 0 0 0 0 0 0 0 0 0 0 0 0 0 0 0 0 0 127 0"></feColorMatrix><feOffset dx="-2.167" dy="3.25"></feOffset><feGaussianBlur stdDeviation="3.779"></feGaussianBlur><feColorMatrix values="0 0 0 0 0.312923 0 0 0 0 0.174155 0 0 0 0 0.0736673 0 0 0 0.5 0"></feColorMatrix><feBlend in2="BackgroundImageFix" mode="hard-light" result="effect1_dropShadow"></feBlend><feBlend in="SourceGraphic" in2="effect1_dropShadow" result="shape"></feBlend></filter><filter id="filter4_dd" width="352.678" height="270.601" x="179.689" y="352.26" color-interpolation-filters="sRGB" filterUnits="userSpaceOnUse"><feFlood flood-opacity="0" result="BackgroundImageFix"></feFlood><feColorMatrix in="SourceAlpha" values="0 0 0 0 0 0 0 0 0 0 0 0 0 0 0 0 0 0 127 0"></feColorMatrix><feOffset dx="1.89" dy="1.89"></feOffset><feGaussianBlur stdDeviation=".945"></feGaussianBlur><feColorMatrix values="0 0 0 0 0.337255 0 0 0 0 0.8 0 0 0 0 0.94902 0 0 0 1 0"></feColorMatrix><feBlend in2="BackgroundImageFix" result="effect1_dropShadow"></feBlend><feColorMatrix in="SourceAlpha" values="0 0 0 0 0 0 0 0 0 0 0 0 0 0 0 0 0 0 127 0"></feColorMatrix><feOffset dx="-3.779" dy="-3.779"></feOffset><feGaussianBlur stdDeviation=".945"></feGaussianBlur><feColorMatrix values="0 0 0 0 0.337255 0 0 0 0 0.8 0 0 0 0 0.94902 0 0 0 0.5 0"></feColorMatrix><feBlend in2="effect1_dropShadow" result="effect2_dropShadow"></feBlend><feBlend in="SourceGraphic" in2="effect2_dropShadow" result="shape"></feBlend></filter></defs></svg>