<svg xmlns="http://www.w3.org/2000/svg" width="1500" height="1500" id="weightlifting"><path fill="#264653" d="M224.028 74.8471C216.824 65.7803 224.393 48.6038 232.654 41.9933L234.391 40.6161C233.82 31.4104 236.007 22.9844 243.875 17.5009L244.227 17.251C256.262 8.83912 275.66 16.7718 277.623 31.4759C277.907 33.6033 277.763 35.9112 277.77 38.0622C277.782 42.0708 278.058 40.0388 280.625 42.5274C287.86 49.541 295.84 68.0779 285.627 74.8737L282.066 76.919C281.073 76.2109 280.544 71.8727 280.186 70.5459C273.448 45.5378 239.209 45.9104 232.193 66.502C229.137 75.4717 232.857 72.9243 224.028 74.8471Z" transform="scale(2.92969)"></path><path fill="#E9C46A" d="M224.028 74.8471C232.857 72.9243 229.137 75.4717 232.193 66.502 239.209 45.9104 273.448 45.5378 280.186 70.5459 280.544 71.8727 281.073 76.2109 282.066 76.919 285.513 86.9529 275.279 95.3499 277.915 105.097L277.643 105.5C276.741 106.885 276.343 108.705 275.479 110.195 267.183 124.507 245.304 122.081 235.063 111.475 233.64 110.001 233.153 108.816 231.328 107.827 232.427 105.07 234.181 99.1172 233.346 96.0495L233.255 95.75C232.011 91.4921 229.27 87.5538 227.464 83.4805 226.209 80.6516 225.54 77.5526 224.028 74.8471zM203.253 326.953L252.238 326.968C250.142 342.41 246.927 356.502 238.625 369.443 235.093 374.948 233.29 375.636 235.146 382.087 238.556 393.935 237.313 400.722 234.851 412.88 233.039 421.831 231.359 430.891 228.234 439.5L224.03 449.894C221.366 456.413 221.275 458.065 222.309 465.128 223.758 475.031 223.518 488.03 213.328 493.438L213.066 493.573C208.052 496.196 200.645 496.574 196.118 492.807L195.904 492.625C193.491 490.616 192.067 487.986 191.294 484.951L191.182 484.5C190.66 482.434 190.473 479.993 191.079 477.924L191.21 477.5C193.186 470.647 202.512 464.406 202.979 462.333 203.089 461.844 199.674 450.589 199.282 448.86 194.401 427.334 190.991 398.512 203.753 379.5 205.253 377.265 208.29 374.214 208.641 371.584 210.035 361.139 203.4 340.129 203.253 326.953zM259.355 326.47L313.023 326.932 308.485 326.946C308.509 330.453 308.532 333.953 308.123 337.443L303.846 365.544C303.703 366.938 303.017 370.578 303.789 371.741 312.92 385.513 317.279 394.685 317.275 411.247 317.271 430.236 312.873 444.245 310.775 461.927 312.076 464.764 314.634 466.791 316.56 469.206 326.18 481.268 319.256 497.867 305.501 495.59L305.125 495.524C284.617 492.047 289.546 471.26 289.998 456.975 290.071 454.675 288.252 451.474 287.401 449.337L281.402 430.759C278.321 419.482 275.591 407.31 274.816 395.625 274.486 390.656 278.547 378.227 278.32 377.47 277.345 374.221 272.134 367.737 270.238 364.348 263.865 352.956 261.123 339.291 259.355 326.47z" transform="scale(2.92969)"></path><path fill="#264653" d="M57.5701 375.66C52.4305 388.331 39.4394 396.247 26.1259 389.668 8.63875 381.028 10.9225 362.665 10.9468 346.835L10.9272 283.514C10.9245 278.316 10.5668 272.783 11.2819 267.638 13.1345 254.308 25.9721 242.403 39.8687 244.673L41.25 244.964C47.2124 246.517 52.1533 251.284 55.625 256.209L57.6189 259.532C58.3632 263.503 57.906 268.026 57.8937 272.088L57.8016 369.25C57.7775 371.379 57.5344 373.541 57.5701 375.66zM454.723 260.067C459.509 245.932 475.457 239.615 487.997 248.326L490.343 250.11C499.716 257.666 500.98 266.852 501.002 277.878L501.05 353.962C501.047 358.486 501.388 363.4 500.786 367.882 497.239 394.258 467.161 401.422 454.83 376.752 452.835 369.321 453.658 360.902 453.66 353.241L453.67 290.161C453.672 280.062 453.402 270.105 454.723 260.067z" transform="scale(2.92969)"></path><path fill="#2A9D8F" d="M386.317 245.202L388.501 233.628C390.465 224.701 393.267 215.886 397.906 207.96 409.216 188.639 430.023 188.682 441.265 207.422 448.05 218.731 451.537 232.472 453.093 245.492 453.668 250.305 453.658 255.341 454.723 260.067 453.402 270.105 453.672 280.062 453.67 290.161L453.66 353.241C453.658 360.902 452.835 369.321 454.83 376.752 454.582 377.214 454.606 377.046 454.574 377.515 453.296 396.706 446.864 428.009 427.722 437.134 423.747 439.029 418.994 439.403 414.815 437.909 388.097 428.355 384.557 376.318 383.39 352.25L382.585 326.932 375.866 326.96 382.483 326.832C382.971 325.044 382.615 322.203 382.615 320.287L382.661 304.286 383.653 268.11C384.449 265.376 384.544 262.402 384.858 259.598L386.317 245.202zM57.6189 259.532C59.3643 241.036 65.0751 198.868 88.2448 193.788 114.97 187.929 122.075 227.647 125.657 245.505L128.053 265.743 129.682 303.505C129.301 309.398 129.182 320.88 129.763 326.739L129.588 344.282C129.473 352.092 128.833 359.987 128.066 367.763 126.208 386.578 120.948 421.876 104.455 434.49 94.0614 442.44 80.1244 438.452 72.7739 428.374 64.6108 417.181 60.6039 401.418 58.811 387.817 58.5966 386.191 58.0048 376.39 57.5688 375.66 57.5344 373.541 57.7775 371.379 57.8016 369.25L57.8937 272.088C57.906 268.026 58.3632 263.503 57.6189 259.532z" transform="scale(2.92969)"></path><path fill="#E9C46A" d="M277.915 105.097C279.902 108.182 284.11 110.38 285.502 112.811L285.715 112.923C288.288 114.209 291.767 114.485 294.566 115.287C302.723 117.624 312.56 122.932 317.504 130L317.755 130.354C323.019 137.858 323.316 149.251 321.733 158C320.627 164.113 319.775 161.865 325.975 168.126L335.457 177.353C350.251 191.914 352.137 197.559 362.042 215.449C366.822 224.083 378.01 239.32 386.317 245.202L384.858 259.598C384.544 262.402 384.449 265.376 383.735 268.11L382.639 304.286L308.734 303.662C307.694 281.445 303.115 258.328 294.869 237.734L292.148 231.557C291.601 230.438 291.074 229.16 290.265 228.214L289.935 227.84C275.698 241.348 245.726 239.825 228.556 231.505C226.432 230.475 224.148 229.407 222.224 228.03C224.607 226.417 224.575 220.361 224.613 217.812L224.59 209.007C224.533 207.34 224.766 202.553 222.125 202.401C221.493 202.365 221.545 202.737 220.877 202.375C222.588 191.979 216.39 183.979 207.747 178.881L207.519 178.751C202.573 172.601 199.809 170.187 195.629 163.274C191.989 157.253 193.745 161.162 190.237 160.585L189.907 160.518C190.545 157.985 190.737 155.056 190.746 152.451C191.451 145.486 189.495 138.887 192.82 132.137C197.485 122.667 217.727 115.18 226.911 112.123C228.833 111.127 230.238 109.679 231.328 107.827C233.153 108.816 233.64 110.001 235.063 111.475C245.304 122.081 267.183 124.507 275.479 110.195C276.343 108.705 276.741 106.885 277.643 105.5L277.915 105.097ZM302.804 180.209C297.334 183.86 294.425 189.04 291.391 194.711C285.546 205.638 285.877 211.201 288.552 223.397C288.83 224.667 289.072 226.491 289.724 227.604L289.935 227.84L290.265 228.214C291.074 229.16 291.601 230.438 292.148 231.557L294.869 237.734C303.115 258.328 307.694 281.445 308.734 303.662L382.639 304.286L383.735 268.11L383.551 267.904C381.482 265.641 379.806 263.024 377.737 260.732C372.35 254.762 366.342 249.006 360.375 243.611L344.375 229.52C330.98 218.147 315.366 205.737 307.578 189.507C306.239 186.716 305.557 183.152 303.678 180.707L303.511 180.498L302.804 180.209Z" transform="scale(2.92969)"></path><path fill="#F4A261" d="M302.804 180.209C303.869 178.562 305.673 177.295 307.005 175.828C310.179 172.333 313.266 168.385 315.582 164.268C315.696 165.654 313.076 169.082 312.183 170.168L310.438 172.688C311.188 171.966 312.156 170.836 312.688 169.938L313.879 168.508C314.454 167.959 314.723 167.322 315.375 166.75L309.527 174.5C307.786 176.654 306.238 178.56 303.939 180.122L303.511 180.498L302.804 180.209Z" transform="scale(2.92969)"></path><path fill="#8C6334" d="M190.746 152.451L191.17 152.079C193.124 154.39 192.539 157.441 193.81 159.949C194.614 161.535 196.022 163.119 197.072 164.564L203.893 173.706C205.144 175.224 206.893 176.717 207.841 178.418L207.747 178.881L207.519 178.751C202.573 172.601 199.809 170.187 195.629 163.274C191.989 157.253 193.745 161.162 190.237 160.585L189.907 160.518C190.545 157.985 190.737 155.056 190.746 152.451Z" transform="scale(2.92969)"></path><path fill="#CED7B4" d="M277.915 105.097C279.902 108.182 284.11 110.38 285.502 112.811C285.055 114.752 285.369 116.895 285.109 118.884C283.234 133.248 272.844 145.638 257.653 146.009C237.058 146.511 227.302 131.569 226.927 112.123C228.833 111.127 230.238 109.679 231.328 107.827C233.153 108.816 233.64 110.001 235.063 111.475C245.304 122.081 267.183 124.507 275.479 110.195C276.343 108.705 276.741 106.885 277.643 105.5L277.915 105.097Z" transform="scale(2.92969)"></path><path fill="#264653" d="M189.907 160.518L190.237 160.585C193.745 161.162 191.989 157.253 195.629 163.274C199.809 170.187 202.573 172.601 207.519 178.751L207.747 178.881C216.39 183.979 222.588 191.979 220.877 202.375C221.545 202.737 221.493 202.365 222.125 202.401C224.766 202.553 224.533 207.34 224.59 209.007L224.613 217.812C224.575 220.361 224.607 226.417 222.224 228.03C224.148 229.407 226.432 230.475 228.556 231.505C245.726 239.825 275.698 241.348 289.935 227.84L290.265 228.214C291.074 229.16 291.601 230.438 292.148 231.557L294.869 237.734C303.115 258.328 307.694 281.445 308.734 303.662L382.699 304.258L382.615 320.287C382.615 322.203 382.971 325.044 382.483 326.832L375.866 326.955L313.023 326.967L259.355 326.5L259.162 326.218C257.617 324.074 258.525 320.161 256.125 318.361C253.695 319.343 252.782 325.056 252.238 327.266L203.241 326.968L129.763 326.956C129.182 320.88 129.301 309.398 129.773 303.505L128.053 265.743L125.657 245.505L136.753 233.874C141.226 228.965 145.534 224.054 148.84 218.254C154.013 209.179 157.715 199.286 164.232 191C168.644 185.39 173.628 180.081 178.646 175.007C183.931 169.662 187.24 167.649 189.907 160.518ZM189.907 160.518C187.24 167.649 183.931 169.662 178.646 175.007C173.628 180.081 168.644 185.39 164.232 191C157.715 199.286 154.013 209.179 148.84 218.254C145.534 224.054 141.226 228.965 136.753 233.874L125.657 245.505L128.053 265.743L129.862 303.651L202.675 303.702C204.726 285.814 210.957 242.971 222.049 228.259L222.224 228.03C224.607 226.417 224.575 220.361 224.613 217.812L224.59 209.007C224.533 207.34 224.766 202.553 222.125 202.401C221.493 202.365 221.545 202.737 220.877 202.375C222.588 191.979 216.39 183.979 207.747 178.881L207.519 178.751C202.573 172.601 199.809 170.187 195.629 163.274C191.989 157.253 193.745 161.162 190.237 160.585L189.907 160.518Z" transform="scale(2.92969)"></path><path fill="#E9C46A" d="M189.907 160.518L190.237 160.585C193.745 161.162 191.989 157.253 195.629 163.274C199.809 170.187 202.573 172.601 207.519 178.751C206.126 181.558 204.838 184.3 203.864 187.287C199.977 199.202 200.875 198.913 191.934 207.634C187.15 212.3 182.409 216.926 177.228 221.155C173.359 224.313 169.056 227.146 165.408 230.543C162.812 232.961 160.657 235.844 158.047 238.287L130.101 263.854C129.541 264.383 128.691 265.424 128.053 265.743L125.657 245.505L136.753 233.874C141.226 228.965 145.534 224.054 148.84 218.254C154.013 209.179 157.715 199.286 164.232 191C168.644 185.39 173.628 180.081 178.646 175.007C183.931 169.662 187.24 167.649 189.907 160.518Z" transform="scale(2.92969)"></path></svg>