<svg xmlns="http://www.w3.org/2000/svg" xmlns:xlink="http://www.w3.org/1999/xlink" viewBox="0 0 64 64" id="ghost"><defs><linearGradient id="c" x1="31.84" x2="31.84" y1="59.01" y2="5" gradientUnits="userSpaceOnUse"><stop offset="0" stop-color="#838383"></stop><stop offset="1" stop-color="#a1a1a1"></stop></linearGradient><linearGradient id="a" x1="37.54" x2="37.54" y1="34.85" y2="25.19" gradientUnits="userSpaceOnUse"><stop offset="0" stop-color="#002237"></stop><stop offset="1" stop-color="#003352"></stop></linearGradient><linearGradient id="d" x1="26.41" x2="26.41" y1="36.82" y2="27.26" xlink:href="#a"></linearGradient><linearGradient id="e" x1="32.31" x2="32.31" y1="46.94" y2="37.49" xlink:href="#a"></linearGradient><linearGradient id="b" x1="37.54" x2="37.54" y1="34.85" y2="25.19" gradientUnits="userSpaceOnUse"><stop offset="0" stop-color="#000406"></stop><stop offset="1" stop-color="#001521"></stop></linearGradient><linearGradient id="f" x1="26.41" x2="26.41" y1="36.82" y2="27.26" xlink:href="#b"></linearGradient><linearGradient id="g" x1="32.31" x2="32.31" y1="46.94" y2="37.49" xlink:href="#b"></linearGradient><linearGradient id="h" x1="31.83" x2="31.83" y1="59.01" y2="5" xlink:href="#b"></linearGradient></defs><g><path fill="url(#c)" d="M51.58,24.47c-1.11.52-2.85,2.2-5.16,5l-3-9.22,3.38.56a4.07,4.07,0,0,0,4.07-6.26l-2.32-3.48A13.63,13.63,0,0,0,37.24,5,17.81,17.81,0,0,0,19.89,18.62L17.25,29.47c-1.8-2.18-3.84-4.39-5.16-5-4.22-2-10.54,5.67-9.34,8.49.85,2,3.26,1.39,5,.94a7.31,7.31,0,0,1,2.13-.35C10.29,34,10,36.77,13,38a4.46,4.46,0,0,0,2.1.29l-1.3,5.33a2.06,2.06,0,0,1-1,1.31,2.71,2.71,0,0,1-2.32,0,4.07,4.07,0,0,0-4.92,5.46l.29.71a7.57,7.57,0,0,0,9,4.38c1.4-.22,4.18-1.82,7.58-.14,4.49,2,6.16,3.7,9.6,3.7s5-1.64,9.77-3.78c3.4-1.71,6.14-.08,8.72.29a7.58,7.58,0,0,0,9-5.53l.08-.33a4,4,0,0,0-1.18-4,4.4,4.4,0,0,0-4.81-.62A2.07,2.07,0,0,1,51,43.74L49.25,38.3a4.23,4.23,0,0,0,1.41-.3c3.09-1.25,2.68-4.08,3.13-4.45a7.25,7.25,0,0,1,2.11.35c1.76.45,4.17,1.06,5-.94C62.12,30.14,55.83,22.5,51.58,24.47Z"></path><path fill="url(#a)" d="M41,25.71a1,1,0,0,0-1.54-.26l-6.27,5.66a1,1,0,0,0,0,1.48c2.24,2.06,5.62,3.34,7.7,1C43.64,30.52,41.14,25.9,41,25.71Z"></path><path fill="url(#d)" d="M31.32,33.24A1,1,0,0,0,31,31.8l-7.85-4.41a1,1,0,0,0-1.45.59c-.07.23-1.56,5.57,2,8.1C26.31,38,29.48,35.91,31.32,33.24Z"></path><path fill="url(#e)" d="M31.62,38c-3.4,1-6.14,2.93-6.61,3.92a1.7,1.7,0,0,0,.34,1.64,8.87,8.87,0,0,0,7.71,3.33c4.67-.54,6.53-5.32,6.65-6.9A1.79,1.79,0,0,0,39,38.47C37.64,37.37,34.54,37.17,31.62,38Z"></path></g><g><path fill="url(#b)" d="M39.49,25.45l-6.27,5.66a1,1,0,0,0,0,1.48c2.28,2.09,5.63,3.33,7.7,1,2.73-3.08.23-7.7.12-7.89A1,1,0,0,0,39.49,25.45Zm-.08,6.82c-1,1.15-2.69.4-4-.47l4.35-3.92C40.2,29.1,40.55,31,39.41,32.27Z"></path><path fill="url(#f)" d="M31.32,33.24A1,1,0,0,0,31,31.8l-7.85-4.41a1,1,0,0,0-1.45.59c-.07.23-1.56,5.57,2,8.1C26.32,38,29.5,35.89,31.32,33.24Zm-6.5,1.21c-1.55-1.1-1.6-3.25-1.44-4.64L29,33C27.82,34.22,26.2,35.44,24.82,34.45Z"></path><path fill="url(#g)" d="M31.62,38c-3.4,1-6.14,2.93-6.61,3.92a1.7,1.7,0,0,0,.34,1.64,8.87,8.87,0,0,0,7.71,3.33c4.67-.54,6.53-5.32,6.65-6.9A1.79,1.79,0,0,0,39,38.47C37.64,37.37,34.54,37.17,31.62,38Zm1.21,6.9a7,7,0,0,1-5.75-2.37,13.45,13.45,0,0,1,5.08-2.61h0c2.8-.79,5-.34,5.53.07C37.51,40.91,36.24,44.51,32.83,44.9Z"></path><path fill="url(#h)" d="M51.58,24.47c-1.11.52-2.85,2.2-5.16,5,0,0-3-9.36-3-9.22l3.38.56a4.07,4.07,0,0,0,4.07-6.26c-1.76-2.31-3-5.69-7.23-7.94A13.63,13.63,0,0,0,37.24,5,17.81,17.81,0,0,0,19.89,18.62L17.25,29.47c-1.8-2.18-3.84-4.39-5.16-5-1.8-.83-4.12-.06-6.36,2.11C4.11,28.15,2,31.15,2.75,33c1.23,2.9,5.67.34,7.15.59C10.29,34,10,36.77,13,38a4.46,4.46,0,0,0,2.1.29l-1.3,5.33a2.06,2.06,0,0,1-2.61,1.49,4.35,4.35,0,0,0-4.89,1c-2,2.23-.47,4.83-.44,5a7.57,7.57,0,0,0,9,4.38c1.4-.22,4.18-1.82,7.58-.14L27.83,58A9.25,9.25,0,0,0,32,59c3.44,0,5-1.64,9.77-3.78,3.4-1.71,6.14-.08,8.72.29a7.58,7.58,0,0,0,9-5.53,4.13,4.13,0,0,0-1.1-4.3,4.4,4.4,0,0,0-4.81-.62A2.07,2.07,0,0,1,51,43.74L49.25,38.3a4.23,4.23,0,0,0,1.41-.3c3.09-1.25,2.68-4.08,3.13-4.45a7.25,7.25,0,0,1,2.11.35c1.76.45,4.17,1.06,5-.94.77-1.81-1.36-4.81-3-6.38C55.7,24.41,53.38,23.64,51.58,24.47ZM56.39,32a7.52,7.52,0,0,0-3-.37c-1.39.26-1.66,1.49-1.84,2.3a2.56,2.56,0,0,1-1.66,2.25,2.9,2.9,0,0,1-1.83,0,1,1,0,0,0-1.21,1.27l2.22,6.91A4.07,4.07,0,0,0,54.25,47c.35,0,1.65-.9,2.82.19a2,2,0,0,1,.6,2l-.08.33A5.58,5.58,0,0,1,51,53.58c-2.4-.33-5.88-2.24-10.08-.13l-5.6,2.8a7.37,7.37,0,0,1-6.54,0c-4.45-2-6.17-3.7-9.61-3.7a18,18,0,0,0-4.82,1A5.58,5.58,0,0,1,7.7,50.3c-.06-.32-1-1.64.09-2.89s2.5-.41,2.82-.38a4.07,4.07,0,0,0,5.13-2.93l1.69-6.92A1,1,0,0,0,16.09,36a3.11,3.11,0,0,1-2.34.13,2.55,2.55,0,0,1-1.67-2.25c-.18-.81-.45-2-1.84-2.3-1.64-.31-5.34,1.33-5.65.6-.16-.56,1-2.88,3-4.6.68-.59,2.4-1.88,3.66-1.3,1,.44,3.14,2.74,5.7,6a1,1,0,0,0,1.76-.38L21.83,19.1A15.81,15.81,0,0,1,37.24,7a11.73,11.73,0,0,1,5.49,1.38c3.67,1.95,4.69,4.88,6.51,7.29a2,2,0,0,1,.28,1.67,2.07,2.07,0,0,1-2.34,1.51l-4.55-.76-2.17-6.26-1.89.66,6.51,19.37a1,1,0,0,0,1.73.31c2.57-3.24,4.66-5.44,5.61-5.88,1.25-.59,3,.71,3.66,1.3,2,1.72,3.15,4,3,4.59S57.33,32.2,56.39,32Z"></path></g></svg>