<svg xmlns="http://www.w3.org/2000/svg" viewBox="0 0 64 64" id="boating"><linearGradient id="a" x1="29.633" x2="29.633" y1="7.515" y2="59.681" gradientUnits="userSpaceOnUse"><stop offset="0" stop-color="#fff" stop-opacity=".25"></stop><stop offset="1" stop-color="#f86c66" stop-opacity=".6"></stop></linearGradient><path fill="url(#a)" d="M46.3 28c-.8-3-1-6.1-1.5-9.1-.6-3-1.7-6.1-4.1-8.1-2.6-2.2-6.3-2.7-9.7-3-4-.4-8.4-.8-11.9 1.2-3.9 2.3-5.8 6.9-6.8 11.4-1 4.4-1.6 9.1-4.2 12.9-2 2.9-5 5.1-6 8.5-1 3.2.2 6.7 2.3 9.3 2.1 2.5 5.1 4.2 8.2 5.5 12.2 5 26.8 4 38.2-2.7 2.3-1.3 4.6-3 5.9-5.3 1.1-1.9 1.4-4.2.6-6.3-.7-1.9-2.1-2.4-3.6-3.6-3.6-2.6-6.3-6.4-7.4-10.7z"></path><path fill="#ff9d23" d="M41.9 36.5H31.3l-.2-1.7c4.3-.6 3-6.6 2.7-7.8.6-.2 1.2-.5 1.8-.8 0-.1 5 4.1 6.3 10.3z"></path><path fill="#0000db" d="M41.9 37.1H31.3c-.3 0-.6-.3-.7-.6l-.2-1.7c0-.4.2-.7.6-.7.8-.1 1.5-.5 1.9-1.1.9-1.4.8-4 .3-5.9-.1-.3.1-.7.4-.8.6-.2 1.1-.5 1.7-.8.2-.1.5-.1.8.1.2.2 5.2 4.4 6.5 10.8 0 .2 0 .4-.1.6-.2.1-.4.1-.6.1zm-10-1.3H41c-1.2-4.6-4.5-7.9-5.6-8.9-.3.2-.6.3-.9.4.3 1.5.7 4.5-.6 6.4-.5.8-1.2 1.3-2.2 1.5l.2.6z"></path><path fill="#f86c66" d="m31.1 34.7-.3-2.3-2.3.8-1.9-4.6 1.6-1c.4 0 .8.1 1.2.1 1.5 0 3-.3 4.3-.8.4 1.3 1.7 7.3-2.6 7.8z"></path><path fill="#0000db" d="M31.1 35.4c-.2 0-.3-.1-.4-.1-.1-.1-.2-.3-.3-.5l-.2-1.5-1.5.5c-.3.1-.7-.1-.9-.4l-1.9-4.6c-.1-.3 0-.7.3-.8l1.6-1c.1-.1.3-.1.4-.1 1.7.2 3.5-.1 5.2-.7.2-.1.4-.1.6 0 .2.1.3.3.3.4.3 1.1 1 4.8-.5 7-.4 1.1-1.4 1.7-2.7 1.8.1 0 0 0 0 0zm-.2-3.7c.1 0 .3 0 .4.1.2.1.3.3.3.5l.2 1.5c.5-.2.9-.5 1.2-.9.8-1.2.8-3.4.4-5.2-1.6.5-3.2.7-4.8.5l-.9.6 1.4 3.4 1.6-.6c0 .2.1.1.2.1z"></path><path fill="#fed3be" d="m28.6 33.2-2.4.8-1.9.6c-.3.1-.5.1-.8.1-.7 0-1.3-.4-1.6-1.1-.2-.5-.3-1.1-.1-1.5.2-.5.5-.8 1-1.1l1.1-.7 2.8-1.7 1.9 4.6z"></path><path fill="#0000db" d="M23.7 35.5h-.2c-.9-.1-1.8-.6-2.2-1.4-.3-.7-.4-1.4-.1-2.1.2-.6.7-1.2 1.3-1.5l3.8-2.4c.2-.1.4-.1.6-.1.2.1.3.2.4.4l1.9 4.6c.1.2.1.4 0 .5-.1.2-.2.3-.4.4l-4.3 1.5c-.3 0-.5.1-.8.1zm-1.2-2.2c0 .1 0 .1 0 0 .2.4.6.7 1.1.7.2 0 .3 0 .5-.1l3.6-1.2-1.3-3.2-3.2 2c-.4.2-.6.4-.7.7-.1.5-.1.8 0 1.1z"></path><path fill="#fed3be" d="m51.2 36.5-1.6 3.2h-20l-1.9-3.2z"></path><path fill="#0000db" d="M49.6 40.4h-20c-.2 0-.5-.1-.6-.3l-2-3.2c-.1-.2-.1-.5 0-.7.1-.2.4-.4.6-.4h23.6c.2 0 .5.1.6.3.1.2.1.5 0 .7L50.2 40c-.1.3-.3.4-.6.4zM30 39h19.2l.9-1.9H28.9L30 39z"></path><path fill="#9495fa" d="M29 46.1c-1.4-.3-1.7-1.1-3.6-1.1-2.2 0-2.2 1.2-4.4 1.2S18.8 45 16.6 45c-1.7 0-2.1.7-3.2 1h-.1l-3.1-6.3h16.5l2.3 3.5-.3.2c-.5.4-.7 1.1-.3 1.6l.6 1.1z"></path><path fill="#0000db" d="M21 46.8c-1.3 0-1.9-.3-2.5-.7-.5-.3-1-.5-1.9-.5-1 0-1.4.2-1.9.5-.3.2-.6.3-1.1.5-.3.1-.7-.1-.8-.3L9.7 40c-.1-.2-.1-.4 0-.6s.3-.3.5-.3h16.5c.2 0 .4.1.5.3l2.3 3.5c.2.3.1.7-.2.8l-.2.3c-.3.2-.3.5-.1.8l.7 1c.1.2.1.5 0 .7-.1.2-.4.3-.6.3-.7-.1-1.1-.4-1.5-.6-.5-.3-1-.5-1.9-.5-1 0-1.4.2-1.9.5-.8.2-1.5.6-2.8.6zm-4.4-2.4c1.3 0 1.9.3 2.5.7.5.3 1 .5 1.9.5 1 0 1.4-.2 1.9-.5.6-.3 1.2-.7 2.5-.7 1 0 1.6.2 2.1.5-.1-.6.1-1.3.6-1.7l-1.8-2.8H11.2l2.4 4.9c.1-.1.3-.1.4-.2.6-.4 1.3-.7 2.6-.7z"></path><path fill="#fed3be" d="M26.7 39.7H10.2l-1.6-3.2h16z"></path><path fill="#0000db" d="M26.7 40.4H10.2c-.3 0-.5-.1-.6-.4L8 36.8c-.1-.2-.1-.5 0-.7.1-.2.3-.3.6-.3h16c.2 0 .4.1.6.3l2.1 3.2c.1.2.1.5 0 .7s-.3.4-.6.4zM10.6 39h14.8l-1.2-1.9H9.7l.9 1.9zm1.5 7.9c-1.3 0-2-.4-2.5-.7-.5-.3-1-.5-1.9-.5-.4 0-.7-.3-.7-.7s.3-.7.7-.7c1.3 0 2 .4 2.5.7.5.3 1 .5 1.9.5.4 0 .8 0 1.1-.1.4-.1.7.1.9.5.1.4-.1.7-.5.9-.5 0-.9.1-1.5.1z"></path><path fill="#9495fa" d="M49.6 39.7 46.5 46h-.1c-1.1-.3-1.5-1-3.2-1-2.2 0-2.2 1.2-4.4 1.2-1.9 0-2.2-.9-3.7-1.1l-1.8-2.9c-.3-.5-1-.7-1.5-.4l-.7.4-1.4-2.4h19.9z"></path><path fill="#0000db" d="M38.8 46.8c-1.3 0-1.9-.3-2.5-.7-.4-.2-.7-.4-1.3-.5-.1 0-.3-.1-.4-.2l-.1-.1-1.8-2.9c-.2-.2-.5-.3-.7-.2l-.7.4c-.3.2-.6.1-.8-.2L29.1 40c-.1-.2-.1-.4 0-.6.1-.2.3-.3.5-.3h20c.2 0 .4.1.5.3.1.2.1.4 0 .6L47 46.3c-.1.2-.3.3-.6.3h-.3c-.4-.1-.8-.3-1.1-.5-.5-.3-1-.5-1.9-.5-1 0-1.4.2-1.9.5s-1.1.7-2.4.7zm-3.3-2.3c.6.1 1 .3 1.4.5.5.3 1 .5 1.9.5 1 0 1.4-.2 1.9-.5.6-.3 1.2-.7 2.5-.7s1.9.3 2.5.7c.1.1.3.2.4.2l2.4-4.9H30.7l.6.9.2-.1c.8-.4 1.9-.1 2.3.6l1.7 2.8z"></path><path fill="#0000db" d="M47.7 46.9c-.5 0-1-.1-1.5-.2-.4-.1-.6-.5-.5-.9.1-.4.5-.6.9-.5.3.1.7.1 1.1.1.9 0 1.4-.2 1.9-.5.6-.3 1.3-.7 2.5-.7.4 0 .7.3.7.7s-.3.7-.7.7c-.9 0-1.4.2-1.9.5-.5.4-1.2.8-2.5.8zm0 3.2c-1.3 0-2-.4-2.5-.7-.5-.3-1-.5-1.9-.5-.9 0-1.4.2-1.9.5-.6.3-1.3.7-2.5.7s-2-.4-2.5-.7c-.5-.3-1-.5-1.9-.5-.9 0-1.4.2-1.9.5-.6.3-1.3.7-2.5.7-1.3 0-2-.4-2.5-.7-.5-.3-1-.5-1.9-.5-.9 0-1.4.2-1.9.5-.6.3-1.3.7-2.5.7s-2-.4-2.5-.7c-.5-.3-1-.5-1.9-.5-.9 0-1.4.2-1.9.5-.6.3-1.3.7-2.5.7s-2-.4-2.5-.7c-.5-.3-1-.5-1.9-.5-.4 0-.7-.3-.7-.7s.3-.7.7-.7c1.3 0 2 .4 2.5.7.5.3 1 .5 1.9.5s1.4-.2 1.9-.5c.6-.3 1.3-.7 2.5-.7 1.3 0 2 .4 2.5.7.5.3 1 .5 1.9.5.9 0 1.4-.2 1.9-.5.6-.3 1.3-.7 2.5-.7s2 .4 2.5.7c.5.3 1 .5 1.9.5.9 0 1.4-.2 1.9-.5.6-.3 1.3-.7 2.5-.7 1.3 0 2 .4 2.5.7.5.3 1 .5 1.9.5s1.4-.2 1.9-.5c.6-.3 1.3-.7 2.5-.7 1.3 0 2 .4 2.5.7.5.3 1 .5 1.9.5.9 0 1.4-.2 1.9-.5.6-.3 1.3-.7 2.5-.7.4 0 .7.3.7.7s-.3.7-.7.7c-.9 0-1.4.2-1.9.5s-1.2.7-2.5.7zm0 3.2c-1.3 0-2-.4-2.5-.7-.5-.3-1-.5-1.9-.5-.9 0-1.4.2-1.9.5-.6.3-1.3.7-2.5.7s-2-.4-2.5-.7c-.5-.3-1-.5-1.9-.5s-1.4.2-1.9.5c-.6.3-1.3.7-2.5.7-1.3 0-2-.4-2.5-.7-.5-.3-1-.5-1.9-.5s-1.4.2-1.9.5c-.6.3-1.3.7-2.5.7-1.3 0-2-.4-2.5-.7-.5-.3-1-.5-1.9-.5-.9 0-1.4.2-1.9.5-.6.3-1.3.7-2.5.7-1.3 0-2-.4-2.5-.7-.5-.3-1-.5-1.9-.5-.4 0-.7-.3-.7-.7s.3-.7.7-.7c1.3 0 2 .4 2.5.7.5.3 1 .5 1.9.5s1.4-.2 1.9-.5c.6-.3 1.3-.7 2.5-.7 1.3 0 2 .4 2.5.7.5.3 1 .5 1.9.5.9 0 1.4-.2 1.9-.5.6-.3 1.3-.7 2.5-.7s2 .4 2.5.7c.5.3 1 .5 1.9.5.9 0 1.4-.2 1.9-.5.6-.3 1.3-.7 2.5-.7 1.3 0 2 .4 2.5.7.5.3 1 .5 1.9.5s1.4-.2 1.9-.5c.6-.3 1.3-.7 2.5-.7 1.3 0 2 .4 2.5.7.5.3 1 .5 1.9.5.9 0 1.4-.2 1.9-.5.6-.3 1.3-.7 2.5-.7.4 0 .7.3.7.7s-.3.7-.7.7c-.9 0-1.4.2-1.9.5s-1.2.7-2.5.7z"></path><path fill="#f86c66" d="M45.9 28.2c-3.7.9-6.2-1.1-8-3.8-4.3-5.1-4.6-13.3-4.6-13.3-2.3 3.5-13.1 3.4-16 3.3.6-6.3 5.8-11.2 12.2-11.2 6.8 0 12.6 5.5 12.3 12.3-.5 9.3 4.1 12.7 4.1 12.7z"></path><path fill="#0000db" d="M44.2 29.1c-2.6 0-5-1.5-6.8-4.3-3.3-3.9-4.3-9.5-4.6-12.2-3.5 2.5-11.8 2.5-15.5 2.4-.2 0-.4-.1-.5-.2-.1-.1-.2-.3-.2-.5.6-6.7 6.1-11.8 12.9-11.8 3.6 0 7.1 1.5 9.6 4.1 2.3 2.5 3.5 5.6 3.4 8.9-.5 8.9 3.8 12.1 3.9 12.1.2.2.3.4.3.7-.1.3-.2.5-.5.5-.8.2-1.4.3-2 .3zM33.3 10.4h.2c.3.1.5.3.5.6 0 .1.3 8 4.4 12.9 1.7 2.6 3.7 3.9 6 3.8-1.4-1.6-3.7-5.4-3.4-12.3.1-2.9-.9-5.7-3-7.9-2.2-2.3-5.4-3.7-8.6-3.7-5.7 0-10.6 4.3-11.4 9.8 6 .1 13.1-.6 14.7-3 .2-.1.4-.2.6-.2z"></path><path fill="#fed3be" d="M33.3 11.1c-2.3 3.5-13.1 3.4-16 3.3v1.1c0 6.4 4.8 11.6 11.1 12.2.4 0 .8.1 1.2.1 1.5 0 3-.3 4.3-.8.6-.2 1.2-.5 1.8-.8.9-.5 1.6-1.1 2.3-1.7-4.4-5.2-4.7-13.4-4.7-13.4z"></path><path fill="#0000db" d="M29.5 28.4c-.4 0-.9 0-1.3-.1-6.7-.6-11.7-6.2-11.7-12.9 0-.4 0-.8.1-1.2 0-.4.3-.7.7-.6 6.1.2 13.8-.4 15.4-2.9.2-.3.5-.4.8-.3.3.1.5.3.5.6 0 .1.3 8 4.4 12.9.2.3.2.7-.1.9-.8.7-1.6 1.3-2.5 1.8-.6.3-1.2.6-1.9.9-1.3.6-2.8.9-4.4.9zM18 15v.4c0 6 4.5 10.9 10.4 11.5 1.7.2 3.5-.1 5.2-.7.6-.2 1.1-.5 1.7-.8.6-.3 1.2-.8 1.7-1.2-3-3.9-3.9-9.2-4.2-11.7C29.5 15 21.9 15.1 18 15z"></path><g fill="#0000db"><circle cx="23.5" cy="18.4" r=".6"></circle><path d="M23.5 19.7c-.7 0-1.3-.6-1.3-1.3s.6-1.3 1.3-1.3 1.3.6 1.3 1.3-.6 1.3-1.3 1.3zm0-1.4c-.1 0-.1 0-.1.1s.2.1.2 0-.1-.1-.1-.1z"></path></g><g fill="#0000db"><path d="M30.3 17.9c0 .3-.3.6-.6.6s-.6-.3-.6-.6.3-.6.6-.6.6.3.6.6z"></path><path d="M29.7 19.2c-.7 0-1.3-.6-1.3-1.3s.6-1.3 1.3-1.3c.7 0 1.3.6 1.3 1.3s-.6 1.3-1.3 1.3zm0-1.4c-.1 0-.1 0-.1.1s.2.1.2 0c0 0 0-.1-.1-.1z"></path></g><path fill="#ff9d23" d="m23.9 30.4-1.1.7c-.5.2-.8.6-1 1.1l-.7-1c-.1-.3-.1-.6-.1-.8 0-.4.2-.9.6-1.1.6-.4 1.5-.2 1.9.4l.4.7z"></path><path fill="#0000db" d="M21.8 32.8c-.2 0-.4-.1-.6-.3l-.7-1c-.2-.3-.3-.7-.3-1.1 0-.7.3-1.3.9-1.7.5-.3 1-.4 1.6-.3.5.1 1 .5 1.3.9l.4.7c.2.3.1.7-.2.9l-1.1.7c-.4.2-.6.4-.7.7 0 .3-.2.5-.6.5.1 0 .1 0 0 0zm.5-3.1c-.1 0-.3 0-.4.1-.2.1-.3.3-.3.6 0 .1 0 .3.1.4l.1.2c.2-.2.4-.3.7-.5l.5-.3-.1-.2c-.1-.2-.3-.3-.4-.3h-.2z"></path><path fill="#ff9d23" d="M35.1 45h-.7c-2.2 0-2.2 1.2-4.4 1.2-.3 0-.6 0-.9-.1L29 46l-.6-.9c-.4-.5-.2-1.2.3-1.6l.3-.2-2.3-3.5-2.1-3.2-1.1-1.7c.3 0 .5 0 .8-.1l1.9-.6 1.5 2.4 2 3.2 1.4 2.4.7-.4c.5-.3 1.2-.1 1.5.4l1.8 2.8z"></path><path fill="#0000db" d="M29.9 46.9c-.4 0-.7 0-1-.1-.2 0-.4-.1-.5-.3l-.6-1c-.5-.8-.4-1.8.3-2.4l-5.1-8c-.1-.2-.1-.5 0-.7.1-.2.4-.4.6-.3.2 0 .3 0 .5-.1l1.9-.6c.3-.1.6 0 .8.3l4.6 7.5.1-.1c.9-.4 1.9-.2 2.4.7l1.8 2.9c.1.2.1.5 0 .7-.1.2-.4.3-.7.3h-.6c-.9 0-1.4.2-1.9.5-.6.3-1.3.7-2.6.7zm-.5-1.4h.5c.9 0 1.4-.2 1.9-.5s1.1-.6 2-.6l-1.1-1.8c-.1-.2-.4-.3-.6-.2l-.7.4c-.3.2-.7.1-.9-.2L25.9 35l-1.2.4 4.9 7.6c.2.3.1.7-.2.9l-.3.2c-.2.2-.3.4-.1.7l.4.7zM27.5 24.3c-1.9 0-3.1-1.2-3.1-1.2-.3-.3-.3-.7 0-1 .3-.3.7-.3 1 0 .2.2 2.2 2 5-.5.3-.2.7-.2 1 .1.2.3.2.7-.1 1-1.5 1.2-2.7 1.6-3.8 1.6z"></path><path fill="none" stroke="#ff9d23" stroke-linecap="round" stroke-linejoin="round" stroke-miterlimit="10" stroke-width="1.372" d="M5.5 21.5 7 20.1l1.3 1.3"></path><path fill="none" stroke="#9495fa" stroke-linecap="round" stroke-linejoin="round" stroke-miterlimit="10" stroke-width="1.372" d="m59.9 43.7 1.5-1.5 1.3 1.3M3.3 27.4l-2 2"></path><path fill="none" stroke="#ff4b4d" stroke-linecap="round" stroke-linejoin="round" stroke-miterlimit="10" stroke-width="1.372" d="m53.8 24.9-2.3 2.4"></path><path fill="#0000db" d="M2.5 58.7c-.2 0-.4-.1-.5-.2-.3-.3-.3-.7 0-1l2.3-2.3c.3-.3.7-.3 1 0 .3.3.3.7 0 1L3 58.5c-.2.1-.3.2-.5.2z"></path><path fill="none" stroke="#ff9d23" stroke-linecap="round" stroke-linejoin="round" stroke-miterlimit="10" stroke-width="1.372" d="m52.7 58.5-2.3 2.3"></path></svg>