<svg xmlns="http://www.w3.org/2000/svg" enable-background="new 0 0 48 48" viewBox="0 0 48 48" id="magic-potion"><linearGradient id="a" x1="7.793" x2="40.207" y1="7.793" y2="40.208" gradientUnits="userSpaceOnUse"><stop offset="0" stop-color="#fc92c3"></stop><stop offset=".5" stop-color="#c2a2d5"></stop><stop offset="1" stop-color="#8e85d5"></stop></linearGradient><path fill="url(#a)" d="M28.787,35.019c0.033-4.73,2.166-9.557,5.851-13.242l6.297-6.297l0.793,0.793c0.391,0.391,1.024,0.39,1.414,0
	l2.828-2.828c0.39-0.39,0.391-1.023,0-1.414l-10-10c-0.391-0.391-1.024-0.39-1.414,0l-2.828,2.828c-0.39,0.39-0.391,1.023,0,1.414
	l0.793,0.793l-6.297,6.297c-3.685,3.685-8.511,5.818-13.242,5.852c-2.994,0.02-5.719,1.109-7.675,3.065
	C0.629,26.957,1.401,35.343,7.03,40.971c5.628,5.628,14.013,6.4,18.692,1.722C27.678,40.737,28.766,38.011,28.787,35.019z
	 M35.263,4.151l8.586,8.586l-1.414,1.414l-8.586-8.586L35.263,4.151z M39.521,14.065L36.585,17H25.037
	c0.902-0.673,1.778-1.401,2.601-2.224l6.297-6.297L39.521,14.065z M8.444,39.557c-4.849-4.849-5.621-11.965-1.722-15.864
	c1.604-1.604,3.774-2.462,6.274-2.479c3.046-0.022,6.043-0.801,8.826-2.214h12.764l-1.362,1.362
	c-4.114,4.114-6.4,9.314-6.436,14.643c-0.017,2.499-0.875,4.669-2.48,6.274C20.408,45.177,13.292,44.405,8.444,39.557z
	 M45.447,33.105l-3.702-1.851l-1.851-3.702C39.725,27.214,39.379,27,39,27s-0.725,0.214-0.895,0.553l-1.851,3.702l-3.702,1.851
	C32.214,33.275,32,33.621,32,34s0.214,0.725,0.553,0.895l3.702,1.851l1.851,3.702C38.276,40.786,38.621,41,39,41
	s0.725-0.214,0.895-0.553l1.851-3.702l3.702-1.851C45.786,34.725,46,34.379,46,34S45.786,33.275,45.447,33.105z M40.553,35.105
	c-0.193,0.097-0.351,0.254-0.447,0.447L39,37.764l-1.105-2.211c-0.097-0.193-0.254-0.351-0.447-0.447L35.237,34l2.211-1.105
	c0.193-0.097,0.351-0.254,0.447-0.447L39,30.236l1.105,2.211c0.097,0.193,0.254,0.351,0.447,0.447L42.764,34L40.553,35.105z
	 M20.447,8.105l-3.702-1.851l-1.851-3.702C14.725,2.214,14.379,2,14,2s-0.725,0.214-0.895,0.553l-1.851,3.702L7.553,8.105
	C7.214,8.275,7,8.621,7,9s0.214,0.725,0.553,0.895l3.702,1.851l1.851,3.702C13.276,15.786,13.621,16,14,16s0.725-0.214,0.895-0.553
	l1.851-3.702l3.702-1.851C20.786,9.725,21,9.379,21,9S20.786,8.275,20.447,8.105z M15.553,10.105
	c-0.193,0.097-0.351,0.254-0.447,0.447L14,12.764l-1.105-2.211c-0.097-0.193-0.254-0.351-0.447-0.447L10.237,9l2.211-1.105
	c0.193-0.097,0.351-0.254,0.447-0.447L14,5.236l1.105,2.211c0.097,0.193,0.254,0.351,0.447,0.447L17.764,9L15.553,10.105z"></path></svg>