<svg xmlns="http://www.w3.org/2000/svg" width="110" height="110" version="1.0" viewBox="0 0 110 110" id="man"><g><path fill="#FBC8C8" d="M70.73 45.189c-1.709.95-1.73 1.921-1.73 3.64V50h-2V38.006c-3.686.886-7.934 1.284-12 1.042v.012c-4-.232-8.748-1.22-12-3.536V50h-2v2.997l4 10 5.105 3.996a2.999 2.999 0 0 0 2.24 1.004h5.31c.856 0 1.671-.365 2.24-1.004L65 62.997l3.207-8.017C71.042 54.776 72 50.476 72 47.222c0-.834-.564-1.669-1.27-2.033z"></path><path fill="#F7B4B4" d="M57.655 67.997h-5.31a2.999 2.999 0 0 1-2.24-1.004L45 62.997V67l9.996 8h.008L65 67v-4.003l-5.105 3.996a2.999 2.999 0 0 1-2.24 1.004z"></path><path fill="#FBC8C8" d="M50.105 66.993L45 62.997v4l9.996 8H55v-7h-2.655a2.999 2.999 0 0 1-2.24-1.004z"></path><path fill="#FBD7D7" d="M43 50h-2v-1.171c0-1.719-.021-2.69-1.73-3.639-.706.363-1.27 1.198-1.27 2.032 0 3.253.958 7.554 3.793 7.758L45 62.997l5.105 3.996a2.999 2.999 0 0 0 2.24 1.004H55V39.059c-4.597-.27-8.957-1.367-12-3.536V50z"></path><path fill="#FFF" d="M49.192 77.803L55 87l5.808-9.197L67 67.997l-2-1L55 75l-10-8.003-2 1z"></path><path fill="#F79392" d="M50 56.997h10s0 3-5 3-5-3-5-3z"></path><path fill="#0484AB" d="M23 87l4-11a6.002 6.002 0 013.043-2.983L43 68l12 19H23zM87 87l-4-11a6.002 6.002 0 00-3.043-2.983L67 68 55 87h32z"></path><path fill="#6FDAF1" d="M40 69l11 18h4l-1.491-2.361L43 68zM70 69L59 87h-4l1.491-2.361L67 68z"></path><path fill="#DF2C2C" d="M64 73l-6.73 3.059C56.72 75.416 55.913 75 55 75s-1.72.416-2.27 1.059L46 73v10l6.73-3.059C53.28 80.584 54.087 81 55 81s1.72-.416 2.27-1.059L64 83V73z"></path><path fill="#3E3E3F" d="M61.5 41a5.482 5.482 0 0 0-3.923 1.648 5.637 5.637 0 0 0-5.153 0A5.5 5.5 0 1 0 48.5 52a5.5 5.5 0 0 0 5.5-5.5c0-.886-.214-1.72-.586-2.461a3.962 3.962 0 0 1 3.173 0A5.455 5.455 0 0 0 56 46.5a5.5 5.5 0 1 0 11 0 5.5 5.5 0 0 0-5.5-5.5z"></path><circle cx="48.5" cy="46.5" r="3.5" fill="#9CE5F4"></circle><circle cx="61.5" cy="46.5" r="3.5" fill="#9CE5F4"></circle><path fill="#C9F2F8" d="M48.5 43a3.5 3.5 0 00-3.5 3.5c0 .992.417 1.883 1.08 2.521l4.94-4.94A3.48 3.48 0 0048.5 43zM61.479 43a3.5 3.5 0 00-3.5 3.5c0 .992.417 1.883 1.08 2.521L64 44.08A3.484 3.484 0 0061.479 43z"></path><path fill="#84462D" d="M75 34.601c-1.943-13.245-34-14.169-34-2.015v1.131c4.955 5.791 17.126 6.421 26 4.289V50h2v-1.171c0-1.811 0-2.792 2-3.792v-8.268c1.588-.625 2.956-1.355 4-2.168z"></path><path fill="#9C6144" d="M55 24.057c-7.379.199-13.971 3.002-13.998 8.497C39.811 33.246 39 34.522 39 36v9.036c2 1 2 1.981 2 3.792V50h2V35.523c3.043 2.169 7.403 3.266 12 3.536V24.057z"></path></g></svg>