<svg xmlns="http://www.w3.org/2000/svg" viewBox="0 0 64 64" id="om"><path fill="#fcb342" d="M62.19,30.83a22.764,22.764,0,0,1,.57,9.19,25.115,25.115,0,0,1-2.93,9.5,15.655,15.655,0,0,1-7.19,6.7,8.607,8.607,0,0,1-4.73.75,8.6,8.6,0,0,1-6.03-5.04,25.446,25.446,0,0,1-1.86-7.92,15.5,15.5,0,0,0,6.21,4.77,7.245,7.245,0,0,0,3.99.29c5.84-1.27,6.73-8.51,6.89-13.42.07-2.47.58-5.93-1.1-8C52.18,22.94,48.1,29.97,47,33c-4,11-14,7-14,7l-.31-2.89C35.44,37.11,38,32,38,32a36.129,36.129,0,0,1,3.69-5.16,13.73,13.73,0,0,1,6.41-4.58,11.03,11.03,0,0,1,8.79,1.2A13.148,13.148,0,0,1,62.19,30.83Z"></path><polygon fill="#fcb342" points="44 5 39 9 34 5 39 1 44 5"></polygon><path fill="#fcb342" d="M50,9l4,6C34,30,27,5,27,5,37,19,50,9,50,9Z"></path><path fill="#fcb342" d="M27.02,34.02A14.339,14.339,0,0,0,32,37a2.074,2.074,0,0,0,.69.11L33,40c1.47,3.91,2.62,8.17.91,12.19-1.5,3.53-4.57,6.2-7.8,8.14-10,6-21,1-24-6S3.11,41,3.11,41C2.11,49,9,53,9,53a15.6,15.6,0,0,0,7.6,2.78c4.67.34,8.85-2.72,11.03-6.71,1.46-2.66,1.66-5.98-.92-7.94A12.941,12.941,0,0,0,19,39l-4-9s17,1,13-7-17,1-17,1L6,17c3.47-3.47,8.27-4.6,11.71-4.93a15.2,15.2,0,0,1,10.06,2.34,13.494,13.494,0,0,1,2.06,1.7c3.78,3.82,4.48,11.07,1.25,15.47C30.74,32.05,27.89,34.81,27.02,34.02Z"></path><path fill="#f98443" d="M62.76 40.02a25.115 25.115 0 0 1-2.93 9.5 15.655 15.655 0 0 1-7.19 6.7 8.607 8.607 0 0 1-4.73.75 8.6 8.6 0 0 1-6.03-5.04 25.446 25.446 0 0 1-1.86-7.92c.18.2.35.4.54.6a17.144 17.144 0 0 0 1.32 4.32 8.6 8.6 0 0 0 6.03 5.04 8.607 8.607 0 0 0 4.73-.75 15.655 15.655 0 0 0 7.19-6.7 25.115 25.115 0 0 0 2.93-9.5c.07-.65.13-1.31.16-1.97A27.544 27.544 0 0 1 62.76 40.02zM44 5L39 9 34 5l1.88-1.5 2.389 1.915a1.171 1.171 0 0 0 1.462 0L42.13 3.5z"></path><path fill="#f98443" d="M54 15C34 30 27 5 27 5a24.091 24.091 0 0 0 2.68 3.15c3.48 6.03 10.62 13.21 22.96 4.81zM33.91 52.19c-1.5 3.53-4.57 6.2-7.8 8.14-10 6-21 1-24-6a14.009 14.009 0 0 1-1.04-6.99 13.555 13.555 0 0 0 1.04 3.99c3 7 14 12 24 6 3.23-1.94 6.3-4.61 7.8-8.14a10.371 10.371 0 0 0 .76-2.86A11.422 11.422 0 0 1 33.91 52.19z"></path><path fill="#f9d5aa" d="M8.788,17.034c-1.062,1.611,2.851.475,3.915-1.139S9.853,15.42,8.788,17.034Z"></path></svg>