<svg xmlns="http://www.w3.org/2000/svg" width="64" height="64" enable-background="new 0 0 64 64" viewBox="0 0 64 64" id="heart-smiley"><path fill="#2B2F64" d="M58.396,8.245c-7.239-7.238-18.893-7.451-26.402-0.649C24.482,0.793,12.829,1.006,5.591,8.245
		c-7.424,7.434-7.453,19.514-0.098,26.985c0.029,0.038,0.059,0.077,0.098,0.116l25.703,25.723c0.185,0.185,0.446,0.281,0.709,0.281
		c0.252,0,0.504-0.097,0.679-0.281l25.714-25.723c0.038-0.039,0.067-0.078,0.097-0.107C65.866,27.758,65.837,15.678,58.396,8.245z
		 M57.026,33.958c-0.029,0.029-0.058,0.067-0.087,0.097L31.993,59.022L7.056,34.065c-0.029-0.039-0.059-0.077-0.098-0.106
		c-6.695-6.714-6.695-17.63,0-24.345c6.705-6.695,17.621-6.695,24.346,0c0.359,0.368,1.019,0.368,1.378,0
		c6.724-6.695,17.64-6.695,24.345,0C63.731,16.329,63.731,27.245,57.026,33.958z"></path><path fill="#F26E62" d="M57.026,9.614c-6.705-6.695-17.621-6.695-24.345,0c-0.359,0.368-1.019,0.368-1.378,0
		c-6.725-6.695-17.641-6.695-24.346,0c-6.695,6.715-6.695,17.631,0,24.345c0.039,0.029,0.068,0.067,0.098,0.106l24.938,24.957
		l24.946-24.967c0.029-0.029,0.058-0.067,0.087-0.097C63.731,27.245,63.731,16.329,57.026,9.614z M23.919,23.528
		c-0.455,0.291-1.047,0.155-1.338-0.291c-0.787-1.213-1.563-1.873-2.105-1.814c-0.68,0.059-1.34,1.154-1.543,1.649
		c-0.146,0.378-0.515,0.611-0.893,0.611c-0.127,0-0.253-0.029-0.369-0.077c-0.495-0.195-0.738-0.768-0.534-1.262
		c0.106-0.271,1.136-2.668,3.153-2.863c1.369-0.125,2.679,0.787,3.92,2.698C24.502,22.635,24.366,23.237,23.919,23.528z
		 M40.861,32.464c-1.94,3.493-4.289,5.356-6.967,5.53c-0.136,0.01-0.282,0.01-0.417,0.01c-4.444,0-7.967-4.657-8.112-4.871
		c-0.32-0.426-0.233-1.027,0.194-1.348c0.427-0.32,1.038-0.233,1.358,0.193c0.028,0.049,3.261,4.328,6.851,4.076
		c1.979-0.127,3.793-1.66,5.395-4.532c0.262-0.466,0.844-0.64,1.32-0.378C40.948,31.407,41.114,31.999,40.861,32.464z
		 M46.489,24.653c-0.165,0.107-0.35,0.156-0.523,0.156c-0.32,0-0.631-0.156-0.825-0.438c-0.776-1.213-1.523-1.863-2.097-1.824
		c-0.669,0.068-1.328,1.146-1.543,1.66c-0.203,0.494-0.766,0.727-1.261,0.533c-0.495-0.204-0.737-0.767-0.534-1.262
		c0.107-0.271,1.136-2.668,3.154-2.862c1.358-0.136,2.678,0.776,3.91,2.698C47.062,23.76,46.936,24.362,46.489,24.653z"></path><path fill="#2B2F64" d="M40.861 32.464c-1.94 3.493-4.289 5.356-6.967 5.53-.136.01-.282.01-.417.01-4.444 0-7.967-4.657-8.112-4.871-.32-.426-.233-1.027.194-1.348.427-.32 1.038-.233 1.358.193.028.049 3.261 4.328 6.851 4.076 1.979-.127 3.793-1.66 5.395-4.532.262-.466.844-.64 1.32-.378C40.948 31.407 41.114 31.999 40.861 32.464zM23.919 23.528c-.455.291-1.047.155-1.338-.291-.787-1.213-1.563-1.873-2.105-1.814-.68.059-1.34 1.154-1.543 1.649-.146.378-.515.611-.893.611-.127 0-.253-.029-.369-.077-.495-.195-.738-.768-.534-1.262.106-.271 1.136-2.668 3.153-2.863 1.369-.125 2.679.787 3.92 2.698C24.502 22.635 24.366 23.237 23.919 23.528zM46.489 24.653c-.165.107-.35.156-.523.156-.32 0-.631-.156-.825-.438-.776-1.213-1.523-1.863-2.097-1.824-.669.068-1.328 1.146-1.543 1.66-.203.494-.766.727-1.261.533-.495-.204-.737-.767-.534-1.262.107-.271 1.136-2.668 3.154-2.862 1.358-.136 2.678.776 3.91 2.698C47.062 23.76 46.936 24.362 46.489 24.653z"></path></svg>