<svg xmlns="http://www.w3.org/2000/svg" xmlns:xlink="http://www.w3.org/1999/xlink" enable-background="new 0 0 1000 1000" viewBox="0 0 1000 1000" id="woman"><linearGradient id="a" x1="492.285" x2="508.56" y1="547.394" y2="1100.727" gradientUnits="userSpaceOnUse"><stop offset=".032" stop-color="#faaf87"></stop><stop offset=".82" stop-color="#ffd9a9"></stop></linearGradient><path fill="url(#a)" d="M831.9,701.65c-31.84-31.47-183.4-11.51-234.21-68.87c-10.21-11.55-20.19-51.48-28.09-92.04
		c-0.24-1.21-1.4-2.1-2.75-2.1H435.96c-1.36,0-2.52,0.88-2.75,2.1c-7.91,40.56-17.88,80.49-28.09,92.04
		c-50.8,57.36-202.37,37.4-234.21,68.87c-13.1,12.99-16.6,42.52-16.74,69.48c0,0,1.25,262.65,2.8,262.65
		c0,0,691.67-1.14,691.67-2.54V771.14C848.5,744.18,845,714.65,831.9,701.65z"></path><linearGradient id="b" x1="511.139" x2="496.019" y1="650.033" y2="1036.673" gradientUnits="userSpaceOnUse"><stop offset="0" stop-color="#d5e900"></stop><stop offset="1" stop-color="#ff0"></stop></linearGradient><path fill="url(#b)" d="M831.98,699.56c-31.84-31.47-183.4-11.51-234.21-68.87c-10.21-11.55-20.09,74.46-58.53,107.99
		c-9.07,7.91-38.56,7.3-48.13,0c-41.62-31.8-75.72-119.53-85.93-107.99c-50.8,57.36-202.37,37.4-234.21,68.87
		c-13.1,12.99-16.6,42.52-16.74,69.48c0,0,1.25,262.65,2.8,262.65c0,0,691.67-1.14,691.67-2.54V769.04
		C848.58,742.08,845.09,712.55,831.98,699.56z"></path><defs><path id="c" d="M831.98,699.56c-31.84-31.47-183.4-11.51-234.21-68.87c-10.21-11.55-20.09,74.46-58.53,107.99
				c-9.07,7.91-38.56,7.3-48.13,0c-41.62-31.8-75.72-119.53-85.93-107.99c-50.8,57.36-202.37,37.4-234.21,68.87
				c-13.1,12.99-16.6,42.52-16.74,69.48c0,0,1.25,262.65,2.8,262.65c0,0,691.67-1.14,691.67-2.54V769.04
				C848.58,742.08,845.09,712.55,831.98,699.56z"></path></defs><clipPath id="d"><use overflow="visible" xlink:href="#c"></use></clipPath><g clip-path="url(#d)"><circle cx="207.19" cy="724.24" r="24.06" fill="#fff"></circle><circle cx="159.06" cy="839.74" r="24.06" fill="#fff"></circle><circle cx="226.44" cy="916.74" r="24.06" fill="#fff"></circle><circle cx="255.31" cy="820.49" r="24.06" fill="#fff"></circle><circle cx="313.06" cy="724.24" r="24.06" fill="#fff"></circle><circle cx="351.56" cy="820.49" r="24.06" fill="#fff"></circle><circle cx="332.31" cy="926.36" r="24.06" fill="#fff"></circle><circle cx="390.06" cy="984.11" r="24.06" fill="#fff"></circle><circle cx="457.44" cy="897.49" r="24.06" fill="#fff"></circle><circle cx="438.19" cy="791.61" r="24.06" fill="#fff"></circle><circle cx="418.94" cy="676.11" r="24.06" fill="#fff"></circle><circle cx="524.82" cy="743.49" r="24.06" fill="#fff"></circle><circle cx="592.19" cy="676.11" r="24.06" fill="#fff"></circle><circle cx="698.07" cy="676.11" r="24.06" fill="#fff"></circle><circle cx="669.19" cy="753.11" r="24.06" fill="#fff"></circle><circle cx="572.94" cy="839.74" r="24.06" fill="#fff"></circle><circle cx="544.07" cy="935.99" r="24.06" fill="#fff"></circle><circle cx="664.61" cy="956.31" r="24.06" fill="#fff"></circle><circle cx="803.94" cy="753.11" r="24.06" fill="#fff"></circle><circle cx="726.94" cy="858.99" r="24.06" fill="#fff"></circle><circle cx="828.24" cy="956.31" r="24.06" fill="#fff"></circle></g><linearGradient id="e" x1="493.317" x2="630.378" y1="371.059" y2="543.54" gradientTransform="matrix(1 .00009 .00009 .936 -.055 41.411)" gradientUnits="userSpaceOnUse"><stop offset="0" stop-color="#fca768"></stop><stop offset="1" stop-color="#ffc593"></stop></linearGradient><path fill="url(#e)" d="M318.01,302.8c22.88-93.5,94.79-130.92,162.14-131.96v-0.06c0.55,0,1.14,0.04,1.69,0.04
			c0.58,0,1.12-0.04,1.69-0.04v0.06c67.34,1.23,139.13,38.82,161.77,132.39c32.61,134.83-23.96,219.24-88.3,270.27
			c-25.99,20.66-50.65,29.87-74.05,29.87v0.08c-0.58,0.01-1.12-0.08-1.68-0.08c-0.55,0-1.16,0.08-1.69,0.08v-0.08
			c-23.45-0.06-48.06-9.34-73.98-30.06C341.38,522.11,285.06,437.56,318.01,302.8z"></path><g><linearGradient id="f" x1="434.817" x2="439.137" y1="732.638" y2="542.558" gradientTransform="rotate(-3.714 495.439 801.106)" gradientUnits="userSpaceOnUse"><stop offset="0" stop-color="#ffc60a"></stop><stop offset="1" stop-color="#e9df15"></stop></linearGradient><path fill="url(#f)" d="M519.98,740.61c1.67-1.79-90.86-62.96-99.11-106.36c-1.48-7.8-0.44-15.98-4.56-13.16
				c-19.59,13.43-65.28,42.37-74.26,52.6c-20.16,22.97,61.79,101.98,81.35,109.75c6.75,2.68,12.74,3.65,18.44,3.28
				c10.37-0.68,19.79-5.75,31.34-12.86c12.77-7.84,30.65-18.08,42.54-29.01C517.24,743.45,518.68,742.04,519.98,740.61z"></path></g><g><linearGradient id="g" x1="347.122" x2="351.441" y1="730.645" y2="540.565" gradientTransform="scale(-1 1) rotate(4.169 -135.269 -11994.771)" gradientUnits="userSpaceOnUse"><stop offset="0" stop-color="#ffc60a"></stop><stop offset="1" stop-color="#e9df15"></stop></linearGradient><path fill="url(#g)" d="M491.42,750.22c-1.9-1.55,81.34-74.86,83.54-118.98c0.4-7.93-1.76-15.89,2.71-13.66
				c21.25,10.6,70.49,32.99,80.79,41.89c23.13,19.98-47.18,109.51-65.48,119.89c-6.32,3.59-12.12,5.37-17.81,5.79
				c-10.36,0.76-20.39-2.98-32.81-8.42c-13.73-6-32.85-13.69-46.13-22.88C494.52,752.65,492.9,751.45,491.42,750.22z"></path></g><g><linearGradient id="h" x1="494.416" x2="500.02" y1="380.322" y2="398.256" gradientUnits="userSpaceOnUse"><stop offset="0" stop-color="#fb5f51"></stop><stop offset="1" stop-color="#ff303d"></stop></linearGradient><path fill="url(#h)" d="M654.04,356.65c-1.52-2.36-3.76-4.21-6.64-5.05c-8.37-2.46-17.76-0.33-26.32-0.76
			c-19.84-0.98-39.74-0.18-59.56-1.74c-13.28-1.05-32.81,6.1-43.21,14.01c-7.97,6.06-13.68,12.13-24.02,13.52
			c-11.61,1.56-20.81-2.56-29.91-10.01c-6.67-5.47-15.74-12.66-24.77-13.32c-18.12-1.15-34.52-4.23-52.78-2.95
			c-19.6,1.37-39.33,1.4-58.98,1.93c-3.34,0.09-5.48,2.94-4.49,6.3c1.32,4.56-0.41,9.32,1.01,13.8c1.8,5.67,8.33,5.04,11.87,9.21
			c3.23,3.8,3.92,10.65,4.77,15.34c1.74,9.56,0.57,23.67,6.26,31.98c0.39,0.57,0.87,1.56,1.04,2.18
			c5.54,19.87,34.54,20.95,50.98,19.55c18.42-1.58,39.17-7.27,52.75-20.51c6.24-6.09,12.47-12.59,16.47-20.43
			c2.51-4.93,1.24-14.07,5.67-17.78c5.13-4.28,31.06-4.99,31.8,3.11c3.95,43.6,66.44,62.04,102.76,53.54
			c12.1-2.83,16.36-10.25,22.73-19.65c8.31-12.24,8.81-27.9,11.06-42.01c1.55-9.76,3.89-5.55,9.65-11.39
			C657.26,370.37,657.56,362.12,654.04,356.65z M464.44,389.63c0.01,1.43-0.08,2.86-0.3,4.29c-1.18,7.7-5.37,14.69-10.64,20.42
			c-17.8,19.39-41.75,28.16-67.96,26.1c-8.43-0.66-17.11-2.62-23.7-7.91c-10.14-8.12-14-22.99-16.56-35.14
			c-0.2-0.96-0.47-2.08-0.6-2.48c-0.29-0.94-0.18-6.72,0.23-11.89c0.28-3.61,1.15-6.22,3.1-9.36c2.23-3.58,4.91-7.06,8.32-9.61
			c8.72-6.51,22.82-6.43,33.16-7.1c11.23-0.74,22.51-0.68,33.73,0.17c10.78,0.82,20.76,1.89,29.54,8.97
			C459.76,371.73,464.35,380.59,464.44,389.63z M633.96,394.9c-1.55,11.85-6.51,28.38-15.64,36.6c-4.82,4.34-11.57,7.05-17.91,8.2
			c-0.75,0.14-1.39,0.26-1.42,0.3c-1.77,1.91-12.38,0.65-14.78,0.59c-6.63-0.16-13.26-0.8-19.73-2.27
			c-10.98-2.49-19.4-7.56-28.23-14.25c-2.52-1.92-10.97-9.64-12.57-11.49c-11.66-13.41-13.27-32.15,0.31-44.75
			c4.15-3.86,8.86-5.11,13.47-7.92c0.62-0.38,8.89-2.31,10.06-2.36c17.59-0.72,35.12-1.37,52.7,0.17
			c7.81,0.68,15.95,1.83,22.37,6.35c6.36,4.48,10.27,11.93,11.39,19.63C634.52,387.36,634.46,391.14,633.96,394.9z"></path></g><linearGradient id="i" x1="201.282" x2="707.544" y1="264.834" y2="264.834" gradientUnits="userSpaceOnUse"><stop offset="0"></stop><stop offset="1" stop-color="#111"></stop></linearGradient><path fill="url(#i)" d="M213.78,448.25c-14.95,10.76,335.09-190.83,380.04-169.29c8.91,4.27,44.1,44.57,55.76,93.36
	c0.18,0.73,0.33,1.6,0.48,2.57c2.17,14.58,20.39,19.73,29.84,8.42c26.04-31.18,51.62-94.61-13.07-203.47
	C558.64-2.23,268.71,84.41,249.3,299.94c-0.05,0.56-0.13,1.11-0.24,1.67c-1.89,9.64-20.01,98.72-46.36,114.64
	c-1.88,1.13-1.79,1.54-0.37,1.45c16.66-1.09,25.33,19.7,12.18,30C214.27,447.89,214.03,448.08,213.78,448.25z"></path></svg>