<svg xmlns="http://www.w3.org/2000/svg" enable-background="new 0 0 50 50" viewBox="0 0 50 50" id="yoga"><polygon fill="#F26F36" points="4.5 36.4 1 41 49 41 45.7 36.4"></polygon><path fill="#E4C7AB" d="M30.7,18.3c0,0,3.4,0.3,4.5,2.2c0,0,2.7,0.7,4.1,1.8c0.2,0.2,0.5,0.2,0.8,0c4.9-3.5,4.3-3.9,4.7-5.5
			c0.1-0.3,0.1-0.6,0-0.9c-0.3-1.8,0.4-1.7,0.5-0.5c0,0,0.1,0.7,0.5,0.6c0.2-0.7-0.2-1.2-0.8-1.3c-0.5-0.6,1.2-0.5,1.4,0.6
			c0,0,0.1,0.4,0.3,0c0,0,0.5-1.1,0.5-1.7c0,0,0.6-1.1,0.5,0.1l-0.2,1.3c-0.2,0.4-0.2,0.6,0.7-0.8c0.7-0.7,0.3,0.2,0,1.1
			c-0.5,0.5-0.1,0.3,0.5-0.1c1.4-0.2-1.7,1.4-2.3,3.2c0,0-0.1,0.5-0.8,0.9c-0.4,0.3-1.5,1.9-1.9,2.3c0,0-1,1.6-2.2,2.5
			c-0.2,0.1-0.3,0.3-0.4,0.5c-0.2,0.3-0.6,0.6-1.6,0.4c0,0-5-0.6-7.3-2.7l-0.4,0.3l-1.4-2.1L30.7,18.3z"></path><path fill="#71467C" d="M7,35.3c0,0-1.4,1.9,0.3,4.1c0.4,1.6,9.4,0.2,12.3-1.7c0,0,1.7-0.7,2.3-0.2l3.3,1.2l6.5-0.7l1.8,1
			c0,0,3.3,0.1,3.6-1.7c0-1,0.2-2.5-1.8-2.7c0,0-5.7-1.2-8-0.9l-6.2-2.4l-1-1.4c-1.4,0.5-1.9,1.9-3.4,2.7l-5.9,3.1l0-0.3
			C10.7,35.6,8.1,34.8,7,35.3z"></path><path fill="#E4C7AB" d="M33.5,39.1c0,0,1-1.4-0.6-3c-2.1-0.8-3.4,0.5-5,0.9l-3.4,0.8c-0.9,0.2-0.8-0.6-1.6-0.8
			c-1.5-0.5-0.9,1.4-2,2c-0.6,0.3-1.6,0.9-1.3,1.5c0,0,0.2,0.8,3.3,0C25.1,39.8,30.3,39.4,33.5,39.1z"></path><path fill="#90619D" d="M20.1,30c0,0-1.2,5,5.6,5.8c0,0,4.4-2.1,5.6-9.1c0.2-1.4,1.6-1.6,1-4.6c0,0-0.5-3.2-1.6-3.9
			c-1.3-0.3-0.1-0.2-6.6-0.3l-0.7,0.3l0,5.1C24.7,27.6,24.3,29,20.1,30z"></path><path fill="#E4C7AB" d="M23.3,23.3c2.3-0.9,1.4-4,0-5.1c0,0-2.4-0.2-3.1,2.5c-0.3,1.2-2.2,2.7-2.2,4c0,0-5.1-1.9-6-3.2
			c0,0-1.2-1.7-1.7-1.7l-0.5,1.8l0.5,1.6l2.8,1.2c0,0,2.4,2.2,3.7,2.8c0,0,0.9,1.1,1.8,0.7c0,0,3.9-3.2,4-5.2L23.3,23.3z"></path><path fill="#D7B690" d="M12.7,25.7c-0.7,0.2-0.9,0.9-0.9,0.9c-0.4,4.4-0.6,5.3-0.5,6.3c0.1,1.9-0.6,2.7-0.6,2.7S8.1,34.8,7,35.3
			c-0.1-2.2,3.6-7.7,2.5-12.9c-0.5-5.7,1.4-1.9,1.4-1.9l1.1,2.3l1.4,1.3C14.2,25.3,12.7,25.7,12.7,25.7z"></path><path fill="#E4C7AB" d="M9.5 22.7c-.8-.1-1.1-3.2.3-3 0 0 .6.5-.3 2.2C9.5 22 9.4 22.4 9.5 22.7zM26.2 12.1c-.2 3.5 0 4.6-2.2 5.9 2.4 2 .9 4 5.1 4.8 0 0 2.3.4 2.3-.8 0 0-.4-2.5-1.7-3.8-.9-.1-.7-1.7 0-2 1.4.4 1.8-.2 1.6-.5 0 0-.1-.4.2-.5 0 0 .2-.2-.1-.4 0 0 .2-.1.1-.3 0 0-.1-.3.1-.4.2-.1.4-.4.3-.6-.2-.4-.6-.8-.6-1.2.1-.8-.4-2.2-1.2-2.4l-1.3-.4-1.8.9L26.2 12.1z"></path><path fill="#D27228" d="M30.7,10.3c0,0-0.9-1.5-3.1-1.3c0,0-2.6-0.2-2.9,3.5c0,0,0,1.1,1.3,2.8c0,0,0.8,0.3,0.8-1.4
			c0,0-0.5-1.6,1.2-1.5c0,0,1.9,0.6,1.4-1.1C29.4,11.3,28.2,9.4,30.7,10.3z"></path><path fill="#D27228" d="M25.8,11.2c0-0.1,0-0.3-0.1-0.4c-0.1-0.1-0.4-0.1-0.6-0.2c-0.3-0.1-0.5-0.5-0.8-0.6
			c-0.2-0.1-0.5,0-0.6,0.2c-0.4,0.4-0.5,1.6-0.3,2c0.2,0.3,0.6,0.4,0.9,0.2c0.1-0.1,0.2-0.1,0.3-0.1c0.1,0,0.2,0,0.3-0.1
			C25.4,12.1,25.8,11.7,25.8,11.2z"></path><path fill="#3F4040" d="M30.4 12.2c.1-.1.2-.2.4-.3.2 0 .3 0 .4 0C30.7 12.1 30.8 11.9 30.4 12.2zM31 12.5c-.1.2-.5.2-.6 0C30.7 12.5 30.8 12.5 31 12.5z"></path></svg>