<?xml version="1.0" ?><svg height="25px" version="1.1" viewBox="0 0 25 25" width="25px" xmlns="http://www.w3.org/2000/svg" xmlns:sketch="http://www.bohemiancoding.com/sketch/ns" xmlns:xlink="http://www.w3.org/1999/xlink"><title/><desc/><defs/><g fill="none" fill-rule="evenodd" id="TabBar-Icons" stroke="none" stroke-width="1"><g fill="#000000" id="Customers"><path d="M25,24 L25,24 L0,24 C0.746351886,17.80366 6.05817227,13 12.5,13 C18.9418277,13 24.2536481,17.80366 25,24 Z M1.5,23 C2.15678966,17.9302673 6.8311916,14 12.5,14 C18.1688084,14 22.8432103,17.9302673 23.5,23 L1.5,23 Z M12.5,12 C15.5375661,12 18,9.53756612 18,6.5 C18,3.46243388 15.5375661,1 12.5,1 C9.46243388,1 7,3.46243388 7,6.5 C7,9.53756612 9.46243388,12 12.5,12 Z M12.5,11 C10.0147186,11 8,8.98528137 8,6.5 C8,4.01471863 10.0147186,2 12.5,2 C14.9852814,2 17,4.01471863 17,6.5 C17,8.98528137 14.9852814,11 12.5,11 Z" id="User"/></g></g></svg>